<mxfile host="65bd71144e">
    <diagram id="_k_JsDcAHqgoyxpS5hM2" name="Page-1">
        <mxGraphModel dx="614" dy="410" grid="1" gridSize="10" guides="1" tooltips="1" connect="1" arrows="1" fold="1" page="1" pageScale="1" pageWidth="850" pageHeight="1100" math="0" shadow="0">
            <root>
                <mxCell id="0"/>
                <mxCell id="1" parent="0"/>
                <mxCell id="3" value="" style="rounded=1;whiteSpace=wrap;html=1;fillColor=#1A1A1A;strokeColor=#000000;" parent="1" vertex="1">
                    <mxGeometry x="676" y="340" width="120" height="60" as="geometry"/>
                </mxCell>
                <mxCell id="4" value="" style="rounded=1;whiteSpace=wrap;html=1;fillColor=#1A1A1A;strokeColor=#000000;" parent="1" vertex="1">
                    <mxGeometry x="676" y="630" width="120" height="60" as="geometry"/>
                </mxCell>
                <mxCell id="8" style="edgeStyle=none;html=1;entryX=0;entryY=0.5;entryDx=0;entryDy=0;endArrow=none;endFill=0;" parent="1" source="5" target="7" edge="1">
                    <mxGeometry relative="1" as="geometry"/>
                </mxCell>
                <mxCell id="5" value="" style="rounded=1;whiteSpace=wrap;html=1;fillColor=#1A1A1A;strokeColor=#000000;" parent="1" vertex="1">
                    <mxGeometry x="120" y="340" width="120" height="60" as="geometry"/>
                </mxCell>
                <mxCell id="6" value="" style="rounded=1;whiteSpace=wrap;html=1;fillColor=#1A1A1A;strokeColor=#000000;" parent="1" vertex="1">
                    <mxGeometry x="120" y="630" width="120" height="60" as="geometry"/>
                </mxCell>
                <mxCell id="9" value="" style="edgeStyle=none;html=1;endArrow=none;endFill=0;" parent="1" source="7" target="6" edge="1">
                    <mxGeometry relative="1" as="geometry"/>
                </mxCell>
                <mxCell id="17" style="edgeStyle=none;html=1;exitX=0.5;exitY=0;exitDx=0;exitDy=0;entryX=0;entryY=0.5;entryDx=0;entryDy=0;endArrow=none;endFill=0;shape=link;" parent="1" source="7" target="14" edge="1">
                    <mxGeometry relative="1" as="geometry"/>
                </mxCell>
                <mxCell id="7" value="&lt;font color=&quot;#000000&quot;&gt;EM&lt;/font&gt;" style="rounded=1;whiteSpace=wrap;html=1;rotation=90;fillColor=#bac8d3;strokeColor=#23445d;" parent="1" vertex="1">
                    <mxGeometry x="120" y="480" width="120" height="60" as="geometry"/>
                </mxCell>
                <mxCell id="11" value="" style="edgeStyle=none;html=1;endArrow=none;endFill=0;" parent="1" source="10" target="3" edge="1">
                    <mxGeometry relative="1" as="geometry"/>
                </mxCell>
                <mxCell id="12" value="" style="edgeStyle=none;html=1;endArrow=none;endFill=0;" parent="1" source="10" target="4" edge="1">
                    <mxGeometry relative="1" as="geometry"/>
                </mxCell>
                <mxCell id="10" value="Servo" style="rounded=1;whiteSpace=wrap;html=1;rotation=0;strokeColor=#000000;fillColor=#333333;" parent="1" vertex="1">
                    <mxGeometry x="691" y="480" width="90" height="60" as="geometry"/>
                </mxCell>
                <mxCell id="14" value="ESC" style="rounded=1;whiteSpace=wrap;html=1;rotation=0;strokeColor=#000000;" parent="1" vertex="1">
                    <mxGeometry x="250" y="480" width="90" height="60" as="geometry"/>
                </mxCell>
                <mxCell id="20" style="edgeStyle=none;html=1;exitX=0.25;exitY=1;exitDx=0;exitDy=0;entryX=0.75;entryY=0;entryDx=0;entryDy=0;endArrow=none;endFill=0;shape=link;" parent="1" source="19" target="14" edge="1">
                    <mxGeometry relative="1" as="geometry"/>
                </mxCell>
                <mxCell id="19" value="&lt;font color=&quot;#000000&quot;&gt;Drive Battery&lt;/font&gt;" style="rounded=1;whiteSpace=wrap;html=1;rotation=0;arcSize=6;fillColor=#ffcccc;strokeColor=#36393d;" parent="1" vertex="1">
                    <mxGeometry x="270" y="360" width="195" height="60" as="geometry"/>
                </mxCell>
                <mxCell id="24" value="Powerbank" style="rounded=1;whiteSpace=wrap;html=1;rotation=0;arcSize=6;fillColor=#1A1A1A;strokeColor=#000000;" parent="1" vertex="1">
                    <mxGeometry x="370" y="640" width="195" height="60" as="geometry"/>
                </mxCell>
                <mxCell id="26" value="" style="shape=image;verticalLabelPosition=bottom;labelBackgroundColor=default;verticalAlign=top;aspect=fixed;imageAspect=0;image=data:image/jpeg,/9j/4AAQSkZJRgABAQEAYABgAAD/2wBDAAMCAgMCAgMDAwMEAwMEBQgFBQQEBQoHBwYIDAoMDAsKCwsNDhIQDQ4RDgsLEBYQERMUFRUVDA8XGBYUGBIUFRT/2wBDAQMEBAUEBQkFBQkUDQsNFBQUFBQUFBQUFBQUFBQUFBQUFBQUFBQUFBQUFBQUFBQUFBQUFBQUFBQUFBQUFBQUFBT/wAARCAFhAhADASIAAhEBAxEB/8QAHwAAAQUBAQEBAQEAAAAAAAAAAAECAwQFBgcICQoL/8QAtRAAAgEDAwIEAwUFBAQAAAF9AQIDAAQRBRIhMUEGE1FhByJxFDKBkaEII0KxwRVS0fAkM2JyggkKFhcYGRolJicoKSo0NTY3ODk6Q0RFRkdISUpTVFVWV1hZWmNkZWZnaGlqc3R1dnd4eXqDhIWGh4iJipKTlJWWl5iZmqKjpKWmp6ipqrKztLW2t7i5usLDxMXGx8jJytLT1NXW19jZ2uHi4+Tl5ufo6erx8vP09fb3+Pn6/8QAHwEAAwEBAQEBAQEBAQAAAAAAAAECAwQFBgcICQoL/8QAtREAAgECBAQDBAcFBAQAAQJ3AAECAxEEBSExBhJBUQdhcRMiMoEIFEKRobHBCSMzUvAVYnLRChYkNOEl8RcYGRomJygpKjU2Nzg5OkNERUZHSElKU1RVVldYWVpjZGVmZ2hpanN0dXZ3eHl6goOEhYaHiImKkpOUlZaXmJmaoqOkpaanqKmqsrO0tba3uLm6wsPExcbHyMnK0tPU1dbX2Nna4uPk5ebn6Onq8vP09fb3+Pn6/9oADAMBAAIRAxEAPwD7S/aa/aai+DVvDouiww6j4xvo/MhikyYrSMnAllA5OecL3x6V8sWvw+8bfGyQ6t438S6hc2kzE+RdSt5eP9i3BCIOnaq/gfzPjj8XvEPjDUibq1uLuS7jHYQhitvGPYIo/LPevo+G3LssEQLMSFVFGT9PpX4jxrxjiMtrLL8v/iNJt72vsku7318juyPJ1nXNi8W37FNqMU7c1t22uh4xH+yj4EEaobeaRgPvEof/AGXFct4r/ZR0+ztpbjQ4obtUBPkXES7z9CAMn2xX2La/CbV7m3ErtDA7DPlOfm/+tXJ6rpdzo129rdxskyEYX/A1+dzzji3JOTF4znUH/Orp+Xl+DPqamQ5Fj4yo0opNdYtprz31/FH5/wCoeGtI0uWSG60yC3nQ4aNoRu4rAml0mRytnotvOg4MsgCflwc17d+054dRb6+1e3QJIgEMpHTlBg/Uc/nXN/AGHwN/wkrJ45ZF0cW3ybyQPM/Cv6MyHMKWdYGGMSs2tV2fVH5ZLh9YLFVKOIk5KO3S67nmazaTCCLzQ4Y07SQrv59DwKay2sx3RaHYxp2SQZP1OBXafFZfD4+IOrjwmyN4fDR/ZfLJI2+Wu7r/ALWa9B+A8PwsfwrrJ8ebP7UE5+ybiR8nljpj/azX0XsYdjWOV4aMnKz9Lv8AzPEYZtD2ut7pcFtOg3cIGDfQ4GfpUMjWEzBotBtfKYZDTEA/lt4/WrWtWtrcapMYwpt4rhnhyc8Z+X9K93+Ddv8ACRvh7dHxiYz4iDS+Tkkfwnb096PYwuRHKcOpuTu12uzwFLrQo1IvNHjtpR91FjVg/sG/+tUZ+xyNvXw/Zp6B2AbHp93g1YuI4muHKBSqu2znJxzjH4V7t8J4fhK3wvv38VGM+JwJ/s+7OfunZ096PYw7DjlOGi23dp9Ls8H+1aB5ZV9IjS57QCMMT9DUQ+y8E6BZbP7vGR/471qVlHmF2GXBwOMjtXvPxFh+E6/CHTj4deP/AIS/Zb/aApJOdn7zr70KjBBHKcNG97u/mzwVrjw8VCx6VHLdf88fLVSPqfSmL9lVtz6BZuO4jIJx/wB88n8aliRFmDsi56McZ/OvePi/F8KI/hjpbeEXj/4STzIPtAUknb5b+Z1/2sUlRgKGU4aKad382eDPPoMqj7HpEc8/dWRVCexbt9OelRr9hSQNP4etNndoyCR68bf6ir+iQ2q6xa/akX7OZV8098ZGc/hmvYv2gofhcum6K3w+KGfzJPtm1iflwuzr053U/YwCOU4aMeV3fndniM0+izECx0eC6HdmARQfyNNjk023YNd6Jbxxjq0IDAfVcdPeu3+DcPhb/hPLJfF7IugYfzvMJAzt46e9XfjtH4NXxtjwTsk0L7LH8qEkeZls9fbbS9jCwRyjDKHK7t97s88lm0iVsWOj29yv/PV1CJ+HBzSRy6RC3+naLbwL/wA9kUSJ+PAxXoHwNh8IL46gj8a7IvD3kS71kJA34+Xke9M+NkPhM+OrlfBzI2g+Unl7CSN3O7k0/YwsH9kYbk5db97/ANI4GWTTbhv9E0G3eLs02FB+gx0qSKbRI/lvtGt7c9mUBl+nQfyr1P8AZ9i8ANreor49aNdOEA+z+YSBvzz09sVy3xYh8Ot4+1dfDRR9AEy/ZcEkAbVzjP8AtZpexhYJZRhnDl1v3u/+GORZtOkkP2fQLXyuzS4U/wDfODipEuvD8akXWjxW0o6J5auG/wB09691+C8Pwpk+H+qt4zMZ8QB3+z5JHGz5en+1Xht5FHJdPgKUSQlM89jin7GASynDSjyq687srt9hkbfF4ftUT+ESMA35beD+NTLceH9p8zSo4rkdIREGJ+hr3L4Y2Hwmuvhrev4rmVPFKCcQKshGflPl9PevCvKDyCRgPMTgMce1J0YBPKMNJJK6+bGlrJm3Hw/Zbf8AeBP/AKD1qU3Hh5oyF0qOS57ReWFI+p9K9v0/TvhM3wRM9zcn/hOvIfaplP8ArfMO3/xzFeIQQxfag7LyWAZ+OFyO/wBKHRgE8ow0rct183r95Eos1w7eHbNx3WMhiB6/d5NSPP4ekUC30mO6lPWJkVQp9z2r3b446H8KdP8ABemzeCbyObWGlX7QgufN2xlPmO364rw2xhh+2wtKFSKSUeYRxlS3J/nQ6MGEspw0pJq6+bK6yafHIDc+H7Xyu7RYYr+G0Z/MVJJPoTEJZ6RBcnu20Ko/HFe6ftAaL8KtL0TSpPAN5HdXrSt9pUXHmYTbwMV5J4GtdJk8VaVDrO2LSGuV+0sPkxHn5ue1P2MAllGGclLW3a7MSOTS4WBvNDgii7tEA4H1GBge9Olm0Vm22Oiw3aj/AJaMAqfgcGvXP2h9I+Hel32jp4AuEvLVo5ftarN5mGyu3Ppxms74B6V4FvvFFxD46lW00pYC0RaXywH+tHsYB/ZOG5+bW3a7/wCHPM45dGVv9N0WG0X/AJ6KA6ficCiSTSXb/Q9BgnjHRpcRj8ODkV1fxWsfD1r481i28MOtz4ejkUWrK+8Muxc89/m3V1X7PulfD/Utb1GLx7Olnp6Qq1vvl8sb93PP0o9jC4f2Rhubm1t2u/8AhzyuK40NWxe6NBZntIUDp+eP6UyRtNkf/R9AtpY+zzERk++MGuk+JNjoMfjbV7fQW8/QY7gC0cNvDKAMYb65r0v9nvR/hjq1vqp8f3SW8qSL9mVp/L+Xb82P0pexgEcowym5O7Xa7/4c8UjuNBRWFzpMUEg6fKGB9l4GTTGbT5MtH4ethH2MrBT+I28H8a1fFVtp3/CSahHpxWbTY7h/srZ3HZkhcH6V7L4R0X4T3HwMN5q19GvjnyZwIWuMHeJGEfyf7m2hUYdgjlGGjJt3a7XZ4tptjomqZjXS4IZ16xtGOPxxzWzYeBbLVryO2stJguJ5DhY0jBJ/+tXM2rGHWLCRThxJt+oIx/n6Cvrf4B+C4tP0BdbniU3d2T5W7+BASP1Of0r5DibOKXD2ClipK8npFd2/0W7OPC8Pzx2ZxwdKbULczfZbP8djkvDX7JmkTQxz64I4ywBNvZoox7biD/Kt+6/ZQ8ETRsscUsTdj8jfzWveND0K816+WC0TzGA5PRR9TXQ6l8K9X0+1a4UxXW0ZKR8sP8a/AIZtxdmsZY7DObgv5V7unZdbfPzP16OR5Dg0sPUguZ/zN3fz6fgfDPjz9nZfB6vdxWEGoWK9J0gAZB/tD0rgP+EX0kcDT7b8Igfxr7xurdLiN4ZU3o2UZG/IjFfJ/wAUvCSeDfFlzaQr/okyie39lORj8CD+lfpPBfFlTOZSwOOS9rFXTtbmS3uu68uh+acW8NxylRxeDb9m3Zq97Pp8n5nn/wDwi+lf9A+2/wC/Qo/4RfSv+gfbf9+hUFxqFwkrKpzjjGMitjSfDviXXrNbmw0+5uoPu+ZHGSOK/WeXyPgI4evU+F3M7/hF9K/6B9t/36FH/CL6V/0D7b/v0K3f+ED8Z/8AQHvP+/Ro/wCED8Z/9Ae8/wC/Rp8j7Gv1LFdn+Jg/8ItpJ66fbf8AfoUf8Ixo5/5h9t/36FbkngLxm20DRrzJONxhJArtLf4QXkmmjz4bwXrL/rdpCg/SuGvVnSdowv8AI+uynhv67SdXFVuTsv8AO55f/wAIvpHbT7b/AL9Cl/4RfSv+gfbf9+hW63w/8ZwzSJ/ZN5IqnariI4YDvR/wgfjP/oD3n/fo11wTlFPlPnsZleJw1eVKMuZLZ9zC/wCEX0r/AKB9t/36FH/CL6V/0D7b/v0K3h4C8Zn/AJgt43/bI0v/AAgPjP8A6Ad5/wB+jV8j7HF9SxXZ/j/kYH/CL6V/0D7b/v0KP+EX0r/oH23/AH6Fb/8AwgPjP/oB3n/fo0f8ID4z/wCgHef9+jRyPsH1LFdn+P8Akc+fC+kjn7BbqezeUBXceBfid4y+Fd5FdeF/EF5bwoQDpt1M01nKOu0xuflyM8oQR61j/wDCA+M/+gHef9+jR/wr/wAZn/mB3np/qjTUWtka08PjaMuaF0/mfo7+z38etO+OnhaW6S3/ALM12wcQ6jprnJic5IZT3RsHGeeCO2a9XU5Y8GvzY/Zth8U/DP4x6HrN3p93a6bdeZp+qb42CCBlJV2/3ZFTnsCa+/x8TPDWSP7Uh/OuuDbWp91gq1StRTqRtJaM6qiuX/4WZ4aP/MUh/OrWl+NNE1y8W0sr+Ge4ZSwjB5IHXFaHcfn9+yHt/wCENuv7+yLP028f1r6k+HPkf8JfY+fjbltuf72OP1xXxL+zZ4ui8Ly6fDcvstL62jiduysB8p/Uj8a+tYbloZFlilKMpDLIpxX8qcWRqZRxNHMKkOaDcJrz5bXX4fkfW8K1qeOyV4WDtKPNF+V22n+P5n05xivLfjR9n8zT/wDn55z/ALlZlr8WtVgtRHJFDLIowJW4b64rktW1a51y6N3dzGSUng9voBX0vFvHGW5tlUsHg4uU52vdW5bNP5vTp952ZXk+IwuJVWq0ku3U+cv2htn9i+JvM6eWuPrha+bIf9Wmeu0V7Z+0/wCIovtmoaTC29ztkm+mwcfj/SuW+B3woT4veJJtJl1NdM8u3MvmMMjtxiv0DgHC1MPk8ZVPt2a9LJfjY+ezfEU6+OnGDvy6P11f6nn9FdR8UvBY+HfjzVvDq3Qv1sXRBdKMCTKK+cfj+ld78Ef2f4vi94c1jVpNdTTDYz+UsTLu8z92HyPzr9JPIueNUVNqFstjqVza+YJBBKyBvXBxmvYPhZ+zi/xN8D3fiMa9b6eLdpR9nlXLNsXNAXPGaKdNGYbhkzvKOV3Hvjj+le0fDf8AZpn+IXw3uPFa67b2awJMxtZEJc+Xnjj6UBc8VopFBb/eIPIr2jx1+zfP4K+F1h4xbXbe8S5SBvsqxkOvmJu5z6UBc8YooVS7KAMbiMZOfzr2T4qfs4z/AAz+Htj4obXLe9S6eGP7PGhDp5iM3f0x+tAXPG6Ks6Xp51PUrWzDCPzpVjD9k3NjP616p8c/2fZfgrZ6TcyavDqgvZZIwsSFSmwKcHP+9+lA7nkVFdb8K/h+/wATvGdroCXkemm4DP50wJVcLnoKufGT4Yv8I/GR0F7+PUT9nSfzYgQo3FhjB/3aAOGortfg/wDDV/ix42g8PpfR6cZIpJftEwJUbRnGBUfxY+Hb/C3xncaA99HqJijST7RCCFO4Zxg0AcdRXpHwR+Dcnxm1q+sI9Uh0s2sSy+ZMpIbJxiuV8feFW8D+MtV0Np47x7GTy/OjzhuAcj86AuYNFexfCX9nOf4peDNS8QrrlvposnkQ27qSzbU3dq8fnjMM8iE79jkFh3x3FArjaK9n+Gv7Ns/xG+Hd/wCKU123s0tfOb7K6Es2xc9vWvF/4Pm477hj26UBcWivZrH9nGe9+C7fED+3IIolgaf7EYjv4kKYz74z+NeNwx+dcIill3Ntye3OMUBcbRXsnxg/Zxm+Evg/T9cfW7bUxdyLGIY1IK7lJzz9K8gtrf7ZcxRKdhkZR7jLY/rQMior2L44fs6y/BjR9NvpNah1QXUzRCOFSNmFzk5+tea+DPDT+MvFGl6HFP5Ml9cLAsuCQu49T+dArmPRXqHxz+CMvwVvtLt5dXh1Zr5JHDQggIEK8f8Aj36VQ+C/wlk+MHiO40qPUodNMMJm8yYEg+2B/nmgZ59RXTfErwW3w78c6t4ca6S+bT5FQ3EYID5RXzg/72Pwro/gh8GpPjNrV9YR6pDpZtYll8yZCQ2TjFAHm1FbvjzwqfBPizU9CkukuTYzeUZo84f5Qc8/Wu3+Cn7P9/8AGmDUJbLWrXShZuqMt0rEHIzxjp0oA8roq94g0d/D+vX2mNKs72kzQGVc4ODjIz9K9R8M/s26l4k+Esnj1NbsUs0SaT7HIjmX93IyY9OdufxoFc8fh/5CVhnp5v8ASvvTwDt/4QfQtn3fsUX/AH15Yz+ua+C7cD+1LIZz++wB6ccivrv4CeMotS8Proszqt5ZZ2K38UZJI/Lp+Ar8Z8TsFVxGW069NXVOV36NWv8AJ/mejkOMpUM5dGo7OcNPVO9vu/I+sfg35H9l3m3/AI+PNG76Y4r0Q9a+ctD1688PXwntHCtjaVP3SPeuk1L4r6pqFm0McUdqzDaZF6n6V4XDPHeWZXk8MJiYtVKaaSS+LW/yfe59LmGTYjEYp1abVpfgYfjD7P8A8JNqH2b/AFXmtt/Lmvmr9pDy/wC2NEx/rfJk3f7u4Y/rXvNzcLGsk80hVV+d2bt718pfFLxYvi7xdPcQtus4QIIPQqM8/icn8RXzPAtGrmHEE8wjHlhHmk+3vXSX4/geXxtiaeFydYSTvKbil/27Zt/h+J5Zcf66X/eNfZf7IP8AyTe4/wCvo/yr40uB++f/AH6+qP2dNXvdN+HLCykSNt9xMSyBs7FyAM/Wv6bpbn5flP8AF+X+R9L0UkcnmQxv3YZx6UtdJ9WFFFFIQU5V3Nx17UL0Iq5bwBV3Hr2qkND4YfLUk/e71LmjnqelFMoKKKKADGaimk2rgde1OlkEa5PWs55DIxJ6UADtubnr3oRTIwA60nsOvar1vAEQMfvUvMXmSRRCJcfxd6k0T/ke9E/65XP/AKCtJgnBPSl0Q/8AFd6J/wBcrn/0FaYz8uPCmP8AhHtMycEQIQfwHevYvAnxw1Hw3DFZ6jF/alovCnftlRfQHofpXjvhX/kW9N/64J/IV0Wi6Tca5qlvZWwUzzNtTJxzXzOYZXg82oewxlNSj+K9HuvkfmuDx+Ly/FOpg5uMnp6+TWzPoWL9oPwxJGrmK+Vu6mFSR7cNXK+LP2hmuYHg0GxaDdn/AEm4ILjjqF7H8TXPaz8A/FOgaTd6hdQRi2tl3uxOcDvXnH8RAHAOAfUV8jhuAckwlVVXTcrdJO6+7S/zufV4/i3PeT2VVqnfqlZ/frb5GJ4hkm1HVLma6d5pJ+XeTktkfzrCsb3UNDkxHJcqc7VuLckHHbJBBr0nw74Vm8Z65Z6XCqmWZ9oZu1evr+x5qHA+3WycY21+kUk4K0FoeRltbF8rnSjzLrfqfKl1eahq0zSDzGlb5jc3TFs+2MknPuRVmz1zVdNjaKH7bApGWW3mwjfqCfxFfU4/Y21Bv+YhbUf8Maahz/xMLbpituap2PZ9vmHNf2St6r/M+Rri2u9TZZ3b7NtbdEpOW3+rY4x/jWhb+JNS0+3aFXvIEzyttIShz1xg9/pX1Gv7FeoiNVGoW3BJpJP2MdRVTnULf8KlOr2IjVzGMm3Tvf0/zPk2aW9uJPOiQRKnzlZvmZ/Y+la1p4q1bTbd7a3l1K1iZdrQwylVIPUHa2D+VfSw/Yyv9uf7Qgz05ry3xx8PW8C+IJ9Ju1V5Yud69x2p88o6tGFbHY3Cp1K1P3f68zyox6hIFuFTy1U4+zFs7ge+egNad54v1i8svsc9zqc1uoAFtLOzRgDoAC22uibT7cD/AFdVZLWDOBFms/bSR58c9qK943OSVr2GQXLDzEYgfZ0YblHqCep9q0tR8XavqFqtpcXepXkKEeXBPKzIuOn3mwMewrZ/s+3j+Yplu1RtYwNkmPmhVpBHPpxVnG5zVvJqFnMJyBNzuDQfKYW9j3rQ1DxNrGuxIlxc3+oeXnb9rkdkTpk/MeOg6elb9vp9udv7urH9nwKxxHQq0rDjn00rSjd9/wCmchp95qugXAnhlmMwBKXVoxSRc9Rxg4/wp+o61qev3G+Z7y7nYbftN47MVX3zyfpXWfYIZiFMdTppVrHgeXzSdeSVmOOez5eW2vc4yy1HVPDdwHSS4jnUELd2jFGKn1wQRTNQ1TUvEFx50rzSzkANeXjF2VfYEkmuvlsYGc5j6VDJa264HlZJ4FV7aVtSf7dqKPLy69zmdN8R6n4dkYQXF3ZSn5TPZSModfwOfwqvf3uo6zcGZppFdjve5uSWdz+PPPr2rqW0+2h+UplutQtYQsR+7qfbNoJZ9PltbXv/AEzH03xhquk2rWsV7qVlExO+G3ncRse/Cn+dUGa9vm8xFEKK24edyZD9O31966uHSoH6x9Ktrptuo/1dP20noN59UcbKNmc5Y+LtX02ye0hu9Ss4W3B7WKV1Tnrna2DmsvbeyEXIXZHGMi2ZvmYeue1du2n2yqWMfAqlJawyNxH8van7WQpZ9UaVo2MePxpqsemmxS/1RLb7ps/Mfyh6/Lu281lLNfBhcFB5ecCFWG5QOhB9fxrqv7Pib/lnUn9k24+9HQ6zCWfVJWtG39epi6j4z1TVrdILq91LUEBBWOeV2CH6MSBWbFc3lrN5soDIWziHAaM+3qPeus/su0/550f2Va9fLpe3fQcs+qSaaijG1LxhquvRpDcXl/qJUZjjvJXZEPbljx07egqjY6hfaPcJOJJA6fPHc2x2vG34YP410rWELceXwKF02D7zR/KOtHtpA8/m5JqOhiat4m1XXtv2me9vpI/lWS8kdvLz/vH9BUeleINU8PyM0VxcwS4x59m5jLD3AORW9JZQPjbH8tOXTbdeWj57Ue2kH9vT5rqOnY5vUtVvdauZJGeeW7lO57q6JZs+vJyTU2leJNT0FiYbm9sZz8rS2crpvH1Xn8DW/wD2fbH5njyvZfWj+z4B8zx4bsvpS9vIP7enzc3Lp2OY1DUr7V7gy+ZIkz/O91cnLufx5596vaT4s1TQg0dvdX+nSMPmWzldUf0OVOT361tLptu3zGLLfwipo9Lg+8yZPrR7eVxrPp83M46djkbifUtRle4QsCvzsbg/NI3p3I+tadn421vT9NbT4b7VbSzKlXs4ppBEQeSMKcEZJNdD/Z9v/wA86Bp9tnPk5I6VarMSz6abbjcwfD+ly3F1FfzxhIYh+5jJyzMeNx9OK7DT9SudHvkvbKZre6hPySIef/1VVRVXA4XsD3H0rofiR8Rda0PWrHR9HuEtIYdJ092ZIlyGezhY4PqSSfxrGUFiE4TV0910sefB4jNMT7SLtJbW6f8ADfmeo+Gf2ik+zrFrthK0gABuLTDZ9ypIx+db9x+0H4ahhZ0hvppF/h8pVH/oVfMQ8WeM9HzcHVNQiB4DXiEoT2+8Mc0v/C7/ABXef6NFdRw3Kf62Tyl+Ueo46n+lfn2I8O8krVfaKDjfpF2X62+R+ixznPsNCNJVYz6Xcdfnsem+PfjLqni9ZLWANpmnnrGjZZh2DN0xXnykZGBgVSPizxla5vm1XUhH94NIGMXPTAI24rr9J8X3vjH4c602rmOe90/VLKJZgMHa8dzuIH+1sXP+7X2eBynC5TQVDBwUYrt+r3fzPjc4w2NryeKxdXnf5fLZL0R5zcf66T/fr6c/Z/8A+Sdv/uXn/osV8xXH+tfOMls4Havp39n/AP5J2/8AuXn/AKLFelS+I2yn+N8v8j6gg/494f8AcFPpkH/HvD/uCn10s+rYUu0EEnqKBjqetWbe3Mjbz+FCAdb2/wB12/CrRJJ5pM8kelLVFBRRRQAUjMEUk0e5+73qjcS+ZIQOg6UAMmlMrZNM2ggk9RSlRwT2qe3tzI4Y9qnqSSWsHR2/CrGSWJNKT29KazBV3HoKooJJBGpJqDw3IZPH2kE/88rj+S1DNMZm/wBkdKl8M/8AI+aP/wBcrj+S0CPzD8K/8i3pv/XBP5Cuy8C6pBovizTb67fZbQyh5GHYVxvhX/kW9N/64J/IVq8150dkfk3tHSre0XR3Pqvx/wDHnwl4h8G6vp9ncyPdXEBSPdEdpOQf6V8xxtFqSmMpFFcAZV0zhj3Bqtb2r3G7aFG3qzdB9alWxKyK32iAsvO4ScVFWak9XqjtxeOq45qU4rQ7P4FZ/wCFo6OCMYdgQeoOOa+31Gc/X+lfGPwX2SfEjSJHMDT7iC0b4J47jvX2afXnPvXVQlzQufWZKrYV+r/Qljkw2KuAblFZwx369qsW8xDAGulH0CLO2kaIOpB69qdu3GimMz5YzGwB9a+Mv2mG2/E66x18pMflX228YlGD1zXxD+05GyfFC7GduIo+fwrCt8J4Od/7o/VHk0jMynA57t6VGoEa7iMt2HpT1kDZKjCL0FQltxJriPztikluScmmtS0jVQi5b/dWp1Xcxx97tUNsu7Zj73atCOEK2W696nmsirXCOELhn/Gobi6AbCqzL7DNF1cDdgdqou4zk9ahd3uU3oSNMZOiMD/tDFMdhGMg5emCZiwHb6ZpGCsx+9+AxVb7k+gxXGSxGXNKZWbqc460u1f9ujav+3VaE+8SR3CDOaf9qTt1qDav+3RtX/boDUJZTJjPQUwL3AyR0p/lqf79KuOgLD3NJjsLHHsGCee5PQU/738bLj+HvSHt8vPZf60m3PU7j3NTvqUO2t2kf/P40bX/AOej/wCfxppGPT/gRxSf98f990WAftf/AJ6P/n8aRoi2Msx/3sf1NN/74/77o/74/wC+6ADydvI6j6U3aWO5+gp3/fH/AH3RwOSEJHvmmA3p856D7tKq7/nPX+Gl27vmcqy/3VqaOJvvNwf7vpQII4z949amoo5rRJIGHNHNHNHNMkQ9aj+Jkot/iFNKdp8uw0ltp/ixp1ocZ7dKkPWoPil/yPd1/wBg/Sv/AE22tb0fiZ9Xw/8AxZ+h3/xk/aSPxZ8F6ZoJ8OLpX9nur+eLzzt+FC/d8tcZ+teAWC48Qapz08kdevy9a1u4rH07/kO6p/2y/wDQa6z7k+hfE37S/wDwkXwct/Af/CN+T5MMUX9ofbN2dpBzs8v/ANmrhvA//Im+Mj632lHr/sX9cX/E1dp4F/5Enxh/1+6V/wCi7+oqfCzy80/3Op6HMXH+vk/3j/Ovpr9nlt3w4f8A3b3/ANFivmW5OJpP94/zr6o/Zp0G61j4ayG12ZElxE27/bXGR+VctHc8XKf43y/yPpWD/j3h/wBwVKtMjUpDGh+8o2n/ABqWGIytgdK6ep9X1HwQ+a2T0XrV4LtUAdO1IqiNQo696dVFBRRRQAUL1o9aguJsLigCO6n3N5fpVU+lKzbgKWOMyMAKRPUWGHzm5+6OtaKrtUKOg6UkcYjUAU7GWFMoBxzVG4l8yTHpUl1NnMdVljMm1R1oEOjiMrADpWhoKiPxzoajr5Nzn/vlabFGI1x/F3qTRP8Ake9E/wCuVz/6CtAz8uPCv/It6b/1wT+QrU9D6Vl+Ff8AkW9N/wCuCfyFavb8a85bH5DU+Nlu43R6fbIPuvuY/wDfWP6VUGdoA6Vbu8/Y7L/cb/0I1U5rOHX5/mKW56B8B1LfFLRf+uh/ka+4ZYtrA+wr4f8AgL/yVLRf98/yr7pZQ/B64GK76Xwn3mRa4R+r/QpMc0gHOadIpRsHpTK0PoS5DMDkHrU/PGazfcde1X7aXzI8H7w61Q0Pr4k/agGfile/9c0/9BFfb3rXxF+1B/yVO+/65x/+gisK/wAB4edf7o/VHjm35Zv92mZzU8i7lX25qJYtzD8/zriR+csbTo4zIcClEJkcgVMxWNfdaG+w0u4pYRrx1WmRzSSTIx6VC0hkOTToP9cv0NJK24c1ySFSRuPpUXytI24MSOm2po/ur/u/1qJcea2f5ZoG9h+4Hu59Kftdunm/8BpcNgen0xTSw7Lu/KkMXY//AE2o2P8A9NqXcMcx/wAqY0yL/wAs/wCVIB2x/wDptRsf/ptTPtCf886PtCf886dn2Fp3H7H/AOm1GxhyVlbH96mfaE/550faE/550WfYencfjvtZc/mfaj7vz5xt/iHQe31pn2iPnKYPam+aGyd2SOlKzC6JPwx7cf5zTsZ/yP8AGq6tk5c49TUhZzjbwvYZxTsK5JtP+cf40bT/AJx/jUf73/LUh8zGSSAO6sM0rDuS7T/nH+NGz/PH+NejeGPgjfeJPDcOsLqsdukiuwjaIsRtJHX8Kgtfgzf311FDHqsO52xu2Hj9azqTjRlGE3Zy28z2KOU46vT9rTptx33X+ZwIXb/kVOOldD48+H9z4DuLOK5uobo3CswaIEYxjrz71zKybeK31g7M8urTnSk6c1Zol5o5oo5rQxDmjmjmjmgQc9e4qL4nrGvxEcS/6k6dpDnr9z+z7YHgf7rVIwPY89OoFdJ400fw144urPUv+EguNKvo7G1tmT7AZNrR28cbc7huBKE/jWtOXK7s97KMVDC1XKez0N3413vwfn8FaUPAfljX1dPtLLBcqR8mG5kAXr6V866dhta1LqQ5Ta2QAcDBxXpP/CvdGlUB/GbRL3aPSH3e/WQ1JJ8M/CrRoF8WXEbR8rIumNuyevV/YVu6kb6H1tTNcNFpRlc7/wAU3/wcb4J20ek+T/wnogi35hug27+P5iPL6V5/4FH/ABRPjFh90X2lJ+Ijvif5ikX4faSzBT4x+XP/ACz0h949/wDWEflW+troXhbwNf6LpupT6pc3d9b3Mjy2xh2+WkwJbJOSTKv0xU1KiasjgzLMKFTDypU5XuedXI/fSf7x/nX1B+zlfXdr8NnFtdyWu1rmY+Xj5mRQVzkHjNfL91nzpOSRuOM/rX01+z1x8NpD/sXo/wDIYrKl8RjlP8b5f5H1PaqZo4xuzlQT+XWtOOMRqAKg0+HyrSP3UH9Ks11n1oUUUUAFFFNkkEakmgBk8gjUH+LtVB2LMWPU0skhkYk03saQmKq7m469qvww+WpJ+93plrAFXeetWOep6UwQA9faoLifauKdPKIlz/F2qizeZlm+9QDEPK8dT0q9bQ+XHuPXvTLWDo7fhVjJLEmgELndzS6J/wAj3on/AFyuf/QVpKXRP+R70T/rlc/+grQM/Ljwr/yLem/9cE/kK1e341leFf8AkW9N/wCuCfyFavb8a85bI/Ianxst3efsdl/uN/6Eaqc1bu8/Y7L/AHG/9CNVOazht95Mtz0H4C/8lS0X/fP8q+6u/wCAr4V+Av8AyVLRf98/yr7rAyfwFd9L4T77If8AdX6v9BrxiRcGqTKVYqe1XylRzQ7hn0rVn0RSpyMVYMOoobrim0iTThmEyn+8BzXxL+1B/wAlSvf+ucf8hX2XDJ5bZr4y/aek8z4oXp/6ZR/+gisa3wHh51/ub9UeRv8Ac/A0SAssYHTH9BQ/3PwNVdUleGO3KnHr+VcB8BCLm+VFwlY19xVZmLnJr6W/ZP8AhzoviHw/d61q1qL+fziiLOgZVGPT3/pXt994W8E6fN5EukWXngZ2rbBiPqMcV1Qo6XPpKORTrU1N1LX8v+CfnzT4P9cv0NffEmheCzjGj22e/wDoeP6Uz/hH/Bh/5gtu30tf/rVXselzX/V6X/P38P8AgnwfH91f93+tQMP3jV9+JoXgvvocP/gHn+lP/sHwV/0A7f8AGy/+tR7BrqV/q/J/8vfw/wCCfAKqZOB1pzMEAX+LvX35/YPgr/oB23/gF/8AWo/sHwV/0A7b/wAAv/rUex8xf6vP/n7+H/BPgFIy+SOAP4vSlLL02q/+01ffv9geCj/zA7f8LL/61QyaB4LGMaHD/wCAeP6Uex8w/wBXpf8AP38P+CfA+5P+eSU5WznbGv8AwHNfeTaF4KVdz6JAFHVjanA/Srcnw38J61p7KukWbQSqRuhjA/EcUew7C/1fl/z8/D/gnwJh2/5Y7vzo2v8A8+/866Lx1osHh3xdqmmw58m2nZEyc4FYWEPbNcj0dj5apTdKbhLdOxFtf/n3/nR5bd4MVR8QXklpYb7eUJIWC7ioOM/UGsYXN/gD7e7AdD5MY/8AZa1hTc1dHp4TLK2Mh7Sm1bbX/hjpjsHJGCKAytydv/Aq5n7VqLcHUXP/AGyj/wDiaI7rUVzjUpF+kUf/AMTWnsJnZ/YOK7x+9/5HT7Ub+5To403dEx64Jx2rl2vNT/6CUrfWKP8A+JpPtepn/mIP/wB+o/8A4mj2Ex/2Diu8fx/yPovwf8atE8L+C7TRbq2vGuYI3j3RoNvLM3r71Honxk0S11KKeRLlFQ9fLBxxXzz9s1FuuoP/AN+o/wD4mka5vz11B8/9co//AImsq2D+sThOe8dj6bDSzTC0vZQcLWt19Ox7X8WvHWmePr6xm0zzDHaoyM0ibc529Pfg156xGDnGR69Pp9a53S9Qvf7SEU1y00ZhdhlVXDAqB0A/vGunk27sAYOOadVS5m5HxGYwqwxMvbW5nbYfbv8AL8ys3p6j2qXdH3jeoYe9OHpnkkAD1rNbHmEm6L/nm9G6L/nm9S6teX/g+y0fV9LvJYLm6E0b+dbRvGFK7TjduB4J7eh7VmSfFLxXJK0kmqxszYyRZQdoxH02f3VH5ZrojRcldM+gw2T1cRSVVSSuXt0X/PN6N0X/ADzeqkPxW8WW7L5eqR5Rlxmyg6hdo6p6Mfzpn/C0PFRcM2qR70VMYsoOix+UP4P7ufx561XsJdzp/wBX6386L26L/nm9KDDwTExAIqna/Fbxba4aLVYgoZD81jAcbBtB5T0J+tWtAvL/AMWQ6ncanezTHS7OBYVjtowoXcVAYjHt2NJ0XFXuc+IyWth6Tqcydih4jsdSt7O11K2LCwRsyyRctE+75fM7KCemeuMVv6TfL4+hcouzxLCrvNbxJgXqjlpE9X5csoAAVc1Tt9QaxkZgiTRMvlyQzAOrIfvAg8dD17Vg69oqWN1b3ujSKtnNIzQBmPmWjDBZTnqoDAK2ecEHpTi4ONma4Spg8RhXh6yUWtb/AK+pTuciZwePm6f/AFu1fTP7PP8AyTd/929/9AFfNepXc1/fTXFxJ508j7nfAGT34HA/Cvpb9nv/AJJu3+5e/wDoAoo/EzvyrSs0u3+R9bW//HvF/uj+VSVHb/8AHvF/uj+VSV1n1gUUUAd/SgBGYKpY9BWdNMZm/wBkdKkuLjzJMf3ai3ZpMTGjHU9as28BZt5pkEPmtk9F61eC7VAHTtQgQdyaRmEalj17UMwVdx6CqU0xmb/ZHSmMZJJ5zbm7dKlt4S7hjTI4fObn7o61fVdqhR0HSl5i8xTxxRRTWYKu49BTGEkgjUk1B4bkMnj7SCf+eVx/Jar3ExmYf3R0qbwv/wAj5o//AFyuP5LSEflV4a1KdfD+nrlRiFQM/QVWmmnvNQuC80nybcbTjGc0nh//AJANl/1yH8qbF/yELz6r/KuWjq9T5LLaVOWJd4rZkknnFc/aZyV6Yc8f5xXr+tfC7UfBvgHwrrV9dRzLrNuJolUksFx/F79K8im/1bf57V9V/Gz/AJIZ8JP+wYv/AKDTxC5Umu56ObYWk8LKfLrHY4j4E4/4Who5Aw2Sf0r7qt5PMTB6jrXwp8DWC/EzSCeu4/yr7hVmRvYc1dH4THIf90fq/wBC/R702OQSLkU6tz6MguIN6lqqdgK0guTn0qrcQfMZKTEyuvevjP8Aaa/5Kdef9c4//QRX2Wxzk+1fGf7TLbvihe/9c0/lWFb4GeBnX+6P1R5M/wBz8DVLVvuWv+ewq6/3PwNUtW+5a/57CuA+GofxEfYX7HZ2/DK9YH5hdEj8q9n8JWsY0W1u9pa5vI1uJJP4mLjcefQZwPYV4v8Ase/8kvvv+vlv5V7PoLNH4J051OCumxHP/bMV6kPhR+oYX+BD0RLdalAJmSFJJCnDeVGXA/EVD/a3/Tvc/wDfhh/StHS4RHp8KKNo2Ake5GT/ADpZYtpBqzoZUh1gc5tblv8Atix/pUo1hD/y53P/AIDv/hT1k2sD6VbVt6g0Aij/AGun/Pnc/wDgO/8AhR/a6f8APnc/+A7/AOFX6KBlD+10/wCfW5X/ALd3/wAKjbWo24NvdDj7wt34/StOq88Z+U9icH6UAU7W6gvoy0L715GGGCPqMZFZmmxLp+u3lvGcQSRrOqdg2ef6VbhhLa1Ljq8IJ+oYj+lV48/8JPLn/n2A/wDHqOoj4e+MAK/EnX9vUTnH61x6glQxXc9dl8XM/wDCxtfI6C6auMMayHdXly3Z+WYz/ean+J/mZXiaPOno5XafMXNZvv71p+JQqaeqdxItZYzznpmu3D/CfZZD/uz9f0FooorqPpQooooAKP4hRR/EKAHaX/yHE/695P8A0JK6mT7y/QfzrltL/wCQ4n/XvJ/6EldTJ95foP5151f4j85zv/fX6Ilh+6f89zTv4ic4/DIpsf3G/wA9zTh2OOnfPTpWUdjwWWviBH/xSPhhvJdcvL87WzoDwOkh+VvoK4POT1z+A9fau38eWuzwr4bl2bdzyfN5BTdx/wA9CxB/AD8a4cdSf616VP4Ufp+WX+qU7i0UUVoeqHeuz+G8YbSfFrGN222kHzrAzhP3p5LDhPq3BrjO9df8O7cTad4olMYcRWsDbjCX2/vG53Bhs+uDWdT4WeZmP+61LdiK6y6qM8sVVR7noB6//XqK8s5bG8mgnikgnicpJFJwysCQQR2OePwqXW/Csus6R9ttZnvJbUMbmwZedueHTHXA656UzR9et9es4dM1KWGG4jjZLPUGOAyjlYZO3AB2nGSWAJrkVNuPMj4eGVzq4X6xTld9v66nONJtklHqSP1FfXn7L/hm48QfDaUwPEmyaaB/Nz0dcZGO/FfIupWs1lqU0FwjRzRvtaMjG059K+3v2Mv+Sa3n/X41Ol8R7eU6VreX+R75CnlwImQdoxx34HNPooxmus+tDGWFVbqbOY6kuJtkePWqB9aBMU/dAp0MRlbA6U1F8xgB97tWjFF5S4P3u9LzBCqojUKOvelxyD6UuMsKrXU3WOmMZcT+Y2P7tQIplfApFXcQB94dKvwR+Wpz949aBeY+OMRqAKdRRjLCgYmOQfSqlxP5jY/u0+6m6x1T7AUCYFs1a8L/API+aP8A9crj+S1Uq34X/wCR80f/AK5XH8lqeokflB4f/wCQDZf9ch/Kmx/8hC9yM8r/ACrofhPpei6v/Z9vr2pPpVgbcn7SgyQ2BgYwfftUfi3TNH0vxXf22gai2racojZLmQYJODnjA/lXPRWtz5vLIP2zncxpJEKNg5P/ANY19W/GxifgX8JM9P7MX/0GrX7Kfg7QNa8C6Fcajoum388moyo8l1aRyM6+eeCWU5FeuftbeG/C80OgW2paguhWtvGy2sNvEAnT7oAUgDHpRiNYr1PXzGm6mEnBduunU+KrK9m026jureRop4vmV17V1a/GLxdtA/ti4x1Ga46RQsjKjb0XhWPfmk5rFNrZn5nTr1aKtTm0vJnbQ/GLxf5igaxNz74p03xl8Yo7Y1qZdo9c1xMX+sFdj8PvhnffErVruG1uYLK3sofPubm4yVjTpnAHJ68UuaV7XOqGKxdS0YTbb82V1+NXjMqh/tyb71PT41eM38z/AInk3Brpo/APwq0uCO31DxzqF7fB+ZLCyCxL97k7skgEdjVHxD8GbFtHudW8HeJbfxRZW4Ek9vsMV1EPXZ/EBkZI70Ny7nRzY1K/tG/SV3+DMIfGjxg5fdrcx2jIrmdU1a81u6lvL6d7i5kOWZ69O034I6ToOnwXvjfxdb+H2uo1ePT4ojNchG/ifnC44ODmpW+Hfwy1uNYNF8d3llcMQo/tOz+VieBymMdP1pS5n1M5wxdWNqs/k5fo2ePv9z8DWfrbeXDbt6f4Cu18e+BdQ+H3iKTR9SkhmlWNZY5rckrJG33WGRnn0rjdY+aONPQn+VZ7PU5aUXCryyVmfYX7H/8AyS+8/wCu5/ka9l0P/kRtO/7B0f8A6KFeMfsg/J8M7of9PB/lXs+htnwRp/8A2Dov/RQr04fCj9Owv8CHojUsP+POD/cFTModSD1qGw/484P9wVPVnSU2jKsQegp8MmHAqaaMSDJ7VUZTznoKXmLzL3eio4JNyY9KnpjGUu0PkHrTqPX6UAZUMR/t9genkD/0I1UeLHiqY+lsP/Qq0f8AmP8A/bD/ANmNVE+bxVOP+nYf+hUdQPhL4vLu+JGvHdt/0lq4/wAuQ9W3fhmuv+MWW+JfiCMf8/T/AM64ts8FG2kcV5cviZ+VYz/eanq/zM7xNu/s9cjP7xe2Kyx35zzWj4kXbp6AtubzFzWcO/1ruw/wn2WQ64Z+v+QtFFFdJ9MFFFFABR/EKKP4hQA7S/8AkOJ/17yf+hJXUyfeX6D+dctpf/IcT/r3k/8AQkrqZPvL9B/OvOr/ABH5znf++v0RLH9xv89zTgCRwOfXOKbH9xv89zThjgkfj6dKyjszwWW/iA0X/CI+GAE2vvly3lON3A7n5D+FcFznnp9c967fx7Gf+EV8OMU25eT5tsozx6lip/BQa4cHNelT+FH6fln+6UxaKKK0PVDvXZfDnyv7J8Wl03N9jg2t5Ttt/enuOF/4FxXG966jwNGX0nxSfK3hbWAlvLkbb+9PdWCj/gQYegzWdT4WeZmX+6VPQlj1OWzmWW3YxzIAQw4yPQ+3qKq+JdLstakgvrANaXNxIxvLVVJCng70bsWJb5e20etbug+CbzxFouq6pbyxLDpy7pBI3LemMD60uo+B9R03wrb6+0kT2VxL5CKpPmhvm6jsMKa4U5LY+Dw313D0pV6Kai+pyN1FZWex7p5POZsDcSWrsvBfx11nwHpbafouovZ2jOX2GI5yfqK4PXiWnsyc4LMef92q38TfWtqdO6vc97LMF7eiq/tJJu+zPZG/as8Yf9Bx/wDv1T7X9qTxzfMVi1pmK+sYFeMH7p+lRR3D298Su3/V87vqKuUHFXTOzGYWtRoyqU60rrzPdY/2i/HU8jGTVtxx02Cu2tv2i3bRw895qX28Jho1Ybc+oPbtXzJHq0qSBvl/AZqz/bUkjZO3PbcMV4uIjUqSXLVt8z1cmx+JwuGbxWF9qt1K1/zX4nsv/DQvjnc23VmVc5ACg/nTj+0V474/4nD/APfArxv+1p/9ij+17j/Yrvhzxik5XPkMZjsXia8qtN8kXsk9Eex/8NEePG6awcd8oKb/AMNBeOP+gx/44K8e/tebvsqM65Kp6KfoM0Sq8u7JoQzXE39jKUrdj2Vf2hPHC/8AMYb8EFPP7RXjvjOsPj/cFeNLrU8nQg/UYpf7XuP9iqU29UzGpPMaUuSpNp+bPY/+GivHX/QYf/vgUf8ADRHjxumsHHfKCvHP7XuP9ij+17j/AGKfNLuZ+3x3/P1/ee6+D/jh4y1zxx4Z0u61YtaahqlvaT7QFPlu4DYPY4r7vHwp008HU9W44/4+h/8AE1+YPwr1Ca4+LngNTt/5Dtn0/wCugr9dVrek273Pq8pnVnRl7aV3c4n/AIVRpv8A0FNW/wDAof8AxNXNF+HenaHqkWoRXV9c3ESsifaZ9yjdjPAA9BXV0Vue6fjn8D7iC1vNPe40R/EEYtT/AKHGm4k/L82Pb+tQfES5guvHOovb6M+gR4j/ANBdNpQ7euPer3wBj16TU9PHhy6trPUfsjfvLvHl7flyDweenaq/xQj12P4hamPEV1bXmp7It8lpjy8beAOBz+Fc9A8LLL6/Pp+u59R/sh/8k90DnH/Exl/9KDXrn7Vtzb20+kmfw5Lr+Ufb5S58nj7x+vSvI/2Q8f8ACvdAz0/tKX/0oNey/tQQ+JZZ9MPh29tLNhG/nfav4lweB8p5z/OlW2j6nr4q7oyt26K/4M+BZjmaQ7SmWJ2ntzTGA4J6jpU00bedIHlUsHbOfXPP4Uzy1XlmDj+6K5ro/JLO4salWEhr1D4B+JrTR/F93pWozLb6frdq9lJK/wB1WYfIT7ZNeYlSo3tw/ZfSrGjabda9rFnY2gzd3EqxxgddxOB/n2ojvc3ozlTqKUVdo2tctNS+FfiW80PVtPivraNyTFcR4WRDk70fqMjoa9u/Zz+G1tr3iyx8W+GL14dGgZor+xvPvxsVH7tT0cHI59q0NV1j7dcaV8MrPw9D8RtZ04LHcanq2QlqeCwR0w4VePmLZ4xz0q78a/id4m+CENj4d8J+HrXRLBYFeTUIbUvE7kfMEHIHOfvZJ61ryq92e9Ro0sPJ1pu8I26ap9r+XXW3ocb8dvhzbeD/ABnqfibxbdPqEeoSsdN0+0bBmAAxvfoir7c15t4L03UPid4ssrK1tIbHRYZBcTLDF+6to1PzM/4Dr3zX0B8NviH4k+PPg7WNO1/whp+tXllbi4tJ76JooJnBA2A5GHIJwVI6dOaxbDULP4jeEdZ8E6NpTfDzxHZI08thb5CX6qMlXYjfn0BJ6jr2lrW/QKlCnUkqtN+7LVK2rfVX2/H0PEvjN4utvGfxAv72zbfYQhbW1bsY4xtGPxz+decatny0z6n+VXZYntZnRxtZGKup6qQcYNUNXYeVGR0JP8qx63PFhN1K3PLds+v/ANkX/kmN1/18H+Ve1aF/yIunf9g6P/0UK8U/ZEbPwyu/+vg/yr2rQ1z4F07/ALB0f/ooV6UPhR+m4b+DD0Rq2H/HnB/uCp6g09f9Dh/3BVnbVnSNx39Kgmi3Yf0qzto28igCgrYbd6Vdik8xc1Wnj2vmkjl2NSuIu0ev0pFbcoPrS+v0pjKH/Mf/AO2H/sxqpH/yNc3/AF7D/wBDq3/zH/8Ath/7MaqxDPiyb/r2H/oVMD4S+Mh/4uVr+BlvtT4/OuKbCfMfmf8AlXY/GRgPid4h4ywumx+dcUyn7xOSa8uXxM/KMZ/vNT/E/wAzK8R5+wqCcnzFqnVzxEf9AX/rotU67qPwn2mQf7tL1/yCiiiug+mCiiigAo/iFFH8QoAdpf8AyHI/+veT/wBCSuteCVmB2M42/wAPbk1yOm/8hyPjP+jyA9P70dfafh3xFpMOg6fG0HEcCqT5Q64rzsROlCX72aj6nyeIy2eZY6pGD2S6XPlyP7rDDD/epf4QSM/yrb+ItxHN4s1maEYj84benpXMfbJG5PTFYxatdao+MrQ9lUlTfRtfcaStb3s0EeqRz3ttAr+XAsxUKzLgHOOMHB/CnPYeHGbK6VcqmBhfthOPk2nt/eBP44q/4H1DRIdVkbxBZSX1n5R2xxkghsjByCKp63Pa33iSRNHgNtaSzBLeJySVU9ASc+9bKTtoz1IVMZQwsa0J+43ZLrcbHZ+GIcPJpFy4VgSftR6BCCOnc4P4YqpJB4bEo26TclVC5H2o8kR7SendsN+GK6fxR8J/EXhzRZtWvvs/2WMAnZL83zEAdh61xDfez/8ArpuU47sirjsfRfLUk0zRto/DcW0S6TcyEMvP2wjopz27nB9sVTUwWe4aatxaRywJHcK0pYSsucn8TzW54R8B6l44uJ4tO8nfCodvOfaOTjrVbxT4UvfBuqDT9SCG4CiT924YYOQO3tSvNq72M6uJx1SjzVJPkf3Fey1bWdNsbm1sJ7i3trgFZ4wCFk4x/LNOXxBq02kw6Vd3bS2EL+YkJ6Ixzz+GW/OvqPQ9f0mDRrNJLbdIsKZPlL6Cvm7x5cQz+MdWkt4mEDTnbtz7elYe1pVNKc1Jnq47A4nLcNHmm+WWlrW8ziPETDfZAJtwzj9KoirviFt01l8rL8z9c/3ap/xN9a9Cj8CPoMl/3OPz/MRv6VWIzqQ9RHmrLf0qvtLalx18vFOvf2crbnq1uSy9r8N1f0urnoPwv+HD+OrwrtaRQ/lxRrxub69q9F8Qfsp67LbhtKsJIZFbBWV9y4+tZP7LOsEfETT9MKbkklMqt6YUg19zDO0Ej8fWvFw2FjVTqTve59LisZKi1TpJWsfC6fsueO9uPsUY5/hkyKX/AIZc8d/8+af9919z0V60aUYqx8bVwNCtUdSS1fY+FZv2WfHkijFjG3qC9dLpP7KOqraqbywnuJcfNskwB9K+yYYjK2B0rQVRGoUde9YVMHTqu8rntYOvLA01SpJWXkfBmofsl+NYrxzZWW+36r5hwRTD+yv49VQzWKL6fPX3ucbST0qjcSNJn5gqDgZ961p4eFPRXOPG044+SnWWq7Hwl/wy7476/Y0/77pP+GXPHf8Az5p/33X1ZffGzwrpetXOmXl3NbzWz+UzNCSufbGf5V0Gm+O/DusKDaazay7sYBlCn8jg1r7OJ5n9mYfz+8+T/An7OfjPw5498Mazd2CNa6ZqcF5Ntf5tiNk496+91+Kdt/FpV8P+AVyayCRQVbevZgciinGKjsdtChDDxcYHWf8AC1Lbtpd//wB8U+H4oWcs8Mcmm3sayOIw7R5UE9M1ykMRlbA6UuqKI1sVHX7VFn860Oo/Mz4N2ujXc2nJrt9Jp1j9nP8ApEJIYNgYGR+NQ+N7fSLXxnqEeh30mo6eAm24mJLE4ORk1e+BupHS77T518PL4mb7KQLFgD/d+bBVun071D8Rr86l471KdtAXw0xEYOnqANmF64Cr1+lc9A8DLLcz769/z2Pqj9kPP/CvNAx0/tGXP/gQa9T/AGubPQLqbR/7cv5bAKrmFomxubHIPrxXlf7IYz8PdA5x/wATGX/0oNev/tV6odNm0ojwwviXcjjYyg+Twfm5Vvp2pVto+p6+Mt7CfNtbs3+C1Pg6QRiRsElckAnvz1pAyrkgZbtRM7PNISqplido/hyelM5rmsfkz3FO5m3Zy38uK9a+B+i6f4fD/EPXZWi0vRZx9mhj+9cz4yEryTk44zzivcPh7oMvxZ+Dz+F9MKLrOl6h9rMDvt82Fzy4PqvP5VUTtwceardK7Sul3a2O8+MfxQtPhp4bsI/BNodO1PxNGdRur7gzqjnOM+pJP5Vy37Onxb8Sa18RLLRtZvZNa0+/3L5d5+9EbYPzAkcd69R+IfwV0L4x6LpVn4d8RWQ1vQLYWb7XEiOAACGA5Xkdfrx6eb6e3h39lHxETeA+MfFxiAMcTiC3tUYA43EMSxGD92tdb36HvVo16eJjWlK1JW1T081Zdb36HDfGz4teKf8AhZmq29nqE+j2thOY7e1sz5aRgDGSAOp/XivS/hf8YtI1Lwjd+M/FGmPfeI9AkW2N9BiN7iKTpv8AU8H8qzpPDvhb9qzW7u+02R/CXipU8y4tZl8+C5UcblcbTu5GePw610Fx8L/CPgHwHq3w8TxFb33jbWmV0LIUzKv3U+XIQYz948k1NpXujKlHEKrOvGScHezb3fTR9TxD42eBIPDerW2vaZctd+H9eVry0uehXLfMhHqCa8p1li0ceS2Rx830r3349LD4N8EeC/A9zNFPq+nRtcXvlfMIXbgJn6H9K+f9YeLy0GMEMf4P/r1g1aR5laMYYq0dPLztqvvPr/8AZFH/ABbG7PpOf5V7ToMwbwXZqev2BP8A0UK8W/ZGbPwvu/Tzz2x2r1/Rv+RNsf8ArwT/ANFivQh8KP0TDfwIeiNvSZT9kgB6bRWi3Wsay/484T/sCtSCXzIwPStDqJKKKKAGuodcGqUimNsHpV+o5o/MXI+8OlAENvL8wFW+5+lZp+Un+8OtXbeXzI8egoEVP+Y//wBsP/ZjVRFz4qn/AOvYf+hVdYZ17/th/wCzGqka/wDFWTf9ew/9CoGfB3xjkA+Jevq33TdPn864pmDYC/dHSu0+MbD/AIWd4hyu7/Sm/nXG/K3AhyK82WjZ+UYz/ean+J/mY/iL/jwX/rotU60fErRf2egxgiRazvp612UPhPtMh/3Z+v6BRRRXSfTBRRRQAUfxCij+IUAGn/8AIaU5wfs8n/oUdfZOj+BZZNHsj9pVAYlHze618bab/wAhyP5cn7PLzzx8yc16kvxY8bWaLDb67tiiAWNfJjPA7ZK5rysVh6GIlaur2PnHmSy3H1ZP7Sj26epW8fW/2TxJq8G9X8uULuHfiuW71paheXGoefc3UnnXEjhnk24y3Oe2PyrM7n61EIqMeWOx8JiKnta0qndt/ezd8I+MLjwTqTX1vaQ3heMxNHMMjBI5/SmzaxP4m8VJfPGlvcXN2hMcQwqHI4H5Vi1Jb3ElrcRTwtsnjYPG+M7WHIP51bba5RxxE+SNJ/Cnex738WodYi8CXv2uSRrdXiVg3QfOMV598PdUOn+H9QQeHI9Z8x2UXDLkxjaOP6/jWVqfxK8UeK7CSw1S/SexYqWjWJV3EHIJIGevvVbw7478Q+GdPmsNKvUt7SdmeVWjU5YgKSCRnkAflWVGnGguVSb83qfT4jNMPiMfHEOPuqNrW66mt8P7TxNcXWoSeG2ngdeJPs5xgZ6H261l+OodZh15xrryy34RMtKcnaRxzUHh7xprvhW6mfSLxYJLg4k3RqwPPoR9elVde8Qaj4l1L7dqs6zXTKFd1UAAAcHGPat/dtu7nmVMZTnl0cMlqpX/ADPp2w8Dytp1qftCnMScH6V84eLIZbXxLqkGA/l3Mi/L9atQ/F7xzBHFFHr7eVGoVFWGI4HQc7c9K5241C5v55Lm4laaaVizuwxubuelcsMLh6D5qMbNndm+cLMKVOnr7vp2MbxJv8yy3Lt+Zv8A0GqAq3rzlprLP95v/Qaq/wATfWvVo/Aj3cl1wcfn+Yjf0quW237f9c/6irDf0qv5fmagf+uf9RV1fgdztx/+7zt/Wp69+zC274y6R/uyfyr75NfBP7MUO34xaSf9mT+Vfex6A1jSS5dDDLpznh/fd7CU5F8xgB97tSew69qvW8GxAx6963R6aJIovKXB+93p465peo+tVrq42LtplDLqfc22qrY5z0H50dgaSkyTn9c+HvhzxJI02o6TBLMwwZSmG/OuH1T9m3w9dsXsLq606TnDK4cD/CvWQM1FcX1vZruuJooV9ZXCj8yaENHhM3wR8Z+H2aXQfEXmIPuqZWVvxJ4qqfEXxa8JMftdlJqMKD5naISjHruFew6h8SvC+mf8fGu2an0jk83H/fOawbr9ojwbpasUlub5h3ghx0/3itMZyHhf9p51vobXW9JWFC4WSeEncnuQegFe66o4kSxdSSrXcZHp17V8Rao03jLxdeSadaSyS31yxhhVMsQzcew619rTwm2sdKhZ97RzQqx75BoH6H5xfAGz1i+1PT49E1CPTL37Ix+0S/dC/LkVX+KFrq1n8QtTi1rUI9TvgkRNxD90rt4FV/g6ugtNp3/CR3Fxa6b9nOZLbO/dgYHAPvUPjYaEPGeo/wDCOXFxdaVhPLkuc784ORyBxXPQPAyx6tX79f0/U+sP2Q8f8K90DP8A0Epf/Sg17N+1DZ63eXGmDRtSh01ljcytN/GuD8orxr9kPP8AwrzQMdf7Sk/9KDXqP7Xi+GXbSR4ju7m0Gx/Ia2zkt74B7Uq20fU9bFu1CTfbvb8T4dkEvnSKW3bXYE/jS7ou67jUc3E8iqdyBvlY9SPemc1zWufk/MT/ALqTKhdpr0H4D+Kk8G/Eaxmu5fJsbsNZzMT8qq4xuP04/OvNjnINTxyrKwVsj3FLWOprSqOnNTW6PQtTtfEnwR+JhurdZovJuPOgmAJjuYS2QMjghgSPzr1b9oz4F+JPFHib/hLtCtJNSh1CGNpraPmSJgoB47g9fzrzz4c/tCax4HMFlqttB4o0WH/VQXyhnh943IOMeh9O3WvQ/iFq2tfGpodY8E+MVgs2jVX0G4vRZ3Fuw69wGB9d1bK0kezT9hUoTgm5Xaaj1X+ZQ+FPwt8TfCfRdf8AH2q2bWdzYafMLG1cHe0jAqGdfQZzXnPwn8O6t4y8fRa1dyyLZ2Mv26/1C4J2xqvJJPck9q9Y8G+LLn4G6Xe3HjbxSviK5uIjFD4atboXbZJ+9K7EhRjjHTk9cV5L4++M2r+PvNs4IIfD/h/JZdL04COPg9XIA3H8APak7RSFWVClGnq1bXl637t9PzOd+JviQ+OfHms6zkypcXB8tm4OwcD8MfzrjNWtV8uMsqqcnGfpWo1x0CH5R0FZWuSF4o8+p/lWerZ5dOXPW53q2fW37Jf/ACTO8A24889Poa9d0TLeELAD732BD/5DWvIv2RV3fDW5GMn7QcY65xXr/hWZH8PWUIYCa1jFrKhGSrIApU/ln6EHvXfH4UfpuG/gQ9Ec547u/EkXhuwfwwhkn3AShFy+3Hb8cV1+iyXf9l2TX4Vb3ylMyr0D45pjaTCsjNFLNbhuSkTAL+XanJpIZuby5/76H+FWdCNtJPMUGnVnLo4VRi8uf++x/wDE0v8AZP8A0+XX/fY/+JoKNCgfeBrP/sn/AKfLr/vsf/E0f2T/ANPl1/32P/iaALF1Dlt9V1ba+/GSOn50f2MG63lz/wB9j/4mqcujlJD/AKXcnP8Atrn89tIXmWYJ1uNc4OWW3Gf++jUUeG8WT57Ww/8AQqWxtIrFQIQx/vMxJJ+pNVbG8W88S3k0R3RQxLbs6/d3Z5A+mB+dMZ8K/GSRl+J3iH0+1N/M1xnmFutdx8YnH/CzPEO1mUfamPyjNcZuz1Z2/wC2ea82XxM/KMYv9pqer/MxPERzYr/10WqdaXiQRf2ev3s+YvWswNnOPWuyhrE+0yHTDP1/RC0UUV0n0wUUUUAFH8Qoo/iFADtL/wCQ4n/XvJ/6EldTJ95foP51zehLu8QJ/wBe8n/oUddLL95foP5159f4mfnOd/76/RCsu61kH0/mapng49Kvx/6tj7/1NRz2/mOWAyxGB61hHY8FlOjbuIq1dXF34QbRtStXsbx7tJla1vLV5VjwNuSCVBPJxg8EUsHxU1y3iyNP8OuRsJ3aYWztiEQ/5adwNx9W5rdUnJXPcw2T1sTSVVNJMjVRCpc0yHO5s+x/WrEfxR11ZEf7D4fyjIysdOJOVUrj/WdDuyfUgU+1+LGu28VqseneHSLdIkDNpZLNsiMY3fvOpB3H1YA0ewkdSyGvde8in/y2z6f40+Vd3zVJH8UNbimjkGn+H2Mflld2nFgdmeo8zvk5+lPh+KutwwxW40/w63kLEq7tNJLbAwyx8zktvO498D0p+wkL+wa9rcyIorcMoLU/7KlTaHqt74yvZo71tPso9PsC6C2tHjMpU47FgSffA460KcjjPuW71MouLszxMXhamDqezqHP+IrUq9m8cbybWbOwZx8tZmJckfZ5uD/crtOaOauNRxVkenhM3qYSiqUYJ2OKYSKuTbzdf7lV8E3hcxvH8h++MZ6V3M4zGa5/Vmz5X4/0olVclax1Szmpik6MoJJno37L53fGXSD/ALL/AMq+++OSevavgP8AZdUf8Lk0gnsr4/Kv0Dt4DJJuPataWx9Dlf8Au/zY+3hztdvwq0cscmgnt6U2SQRqSa2PZGTSbVwOvaqDtubnr3pZJDIxJplJiYUoxzn9BzSUuSATg47+nSkhI8j8VfDvxz4g8QXjQ+KPs2mM/wC5hDEbV9No6Vmx/s2vcNv1XxHczDvsU/zNPn+JHijxV8QNR8NaRPp+jxWu8Ca6Us7BSFOCeCT6Y7Gurs/hHqusYfXfGWpXS90s9tsuPqCeOOuB0qijO0f9nfwZHcLHc3El7OeRG1zhjj2Fdhp/wZ8HWOCmiW0zKfvTLuYfnVvw18L/AA/4Vv1vbGzL6iqlReTytJLg+5rq/wCEDH16ZzQMoWPh/TNLw1pp9vAV43JGAR9KTV8f6Fzk/aou+T1q+zBVLHoKxtSmM1xY/wB0XUePzoEfm98C7m8tb7T5LHRF1+cWpxaMMjHy5bHt/WofiNcXl1471F77Rl0G4IjzZKMBRt6496u/AC01G81PT00vWY9BuhaMReTAFQPl459ar/FC2v7T4halHqWrx65d7Ii15EAFYbeBwO39a56B4WWX1evXtb/M+ov2Q/8Aknugf9hKX/0oNew/tT3VzazaWbfw9/b+UcMuM+Twfm/HpXjv7IeP+Fe6Bn/oJS/+lBr2P9qa11q6m0waRrdvopVHMrT4/erg/KMg+9KttH1PXxV/Yyt26W/XQ+DZWdp5D5GBuJxjGOaRkibG4YPamXBZZ5AxBIYgkdzmmZzXLbU/JWyWSFcBl/hqHhjk9e1PSTy+T93vUjQCbDR9KW24b7CRzKwKuM+lKrRo3yuwYemab9mY0fZXpadx69hztE7bnZmb/azSSSBgAvak+yvR9lb8aNO4tewxVMjYAyaoa9GFhiwcyDOfyrWLCBCR/rOlUdQsXltw5/1gOR+NPmNqNozTZ9G/so+PNH0vwvc6Tf3cdpdLL5gMhAyMV7Nda94SvJvtA1m3gmbrJb3BjY/ka/PhtPud+49R74pTY3rc/Nj/AGXrpjUskrH1tHN40oKFk7eZ+gR1jwwcE+J5M+rak+T+tH9ueF/+hofP/YSf/Gvz8+w3v+3/AN91VazvGm538f7dP2vkbf23D+Vfefoh/wAJD4b7+KJPw1J/8aVfEHhhjz4om/8ABk/+Nfnklhdh84Y4I+89I+m3kjOwLHns9L267D/tqP8AKvvP0UOu+FSBnxVMv/cSf/Gk/tzwp/0Nk3/gyf8Axr85fsd6CR8//fX/ANegWd5uGd//AH3/APXq/beQv7ch/KvvP0b/ALa8KH/mbJv/AAZP/jSNrXhNuviqRsf3tSf/ABr8710+7GPv/wDfdMawujJtLOuf9uo9un0K/tqP8q+8/Q+XVPCTLj/hJ2Yd1bUWIP1yanHjnwpo9iwi1WwSGIbtsco59a/OWbT72NsBnb/gdOtbG7NwvmFgv+09P2vkZyzyKTtFX9Tt/HesweJPG2r31t/qLi4Z0I6EetYzW/OKijt2WQMRgDpzmrWSSaxdm7nxNSo6s5VJbt3M7UtHGpW4i8xoyGDBgAcYrO/4Re45xqLEZ6tGDXRc0c1UZOOiOuhjsRho8lKVkc7/AMIvcf8AQQ/8hLR/wi9x/wBBD/yEtdFzRzVe0l3Oj+1sb/z8/Bf5HO/8Ivcf9BD/AMhLR/wi9x/0EP8AyEtdFzRzR7SXcP7Wxv8Az8/Bf5HO/wDCL3H/AEEP/IS0h8K3Df8AMQ/8hCuj5pGo9pIP7Wxv/Pz8F/kY+l6AdNvvtU1x9o/dtEF2BfvFT/7LWjI+XwOB/d9KJJNxAC5btT44tvJOSetYybm9TgrV6mInz1HdixSdUp7c4BGfwz2pjR9DQkg6EZ59s9DWesfQy3E8fyK2j+GlU52pPn94zfxL2PA/D8a5Ku1+IlwJND8LRCVH8tLj5VmZiuSvVSoC9OxOcdsc8T6/57V6tP4Ufp+Wf7pT9BaKKK0PUCkPUUtIeooA6n4csq32ubjg/wBltj53XuP7vB+h4q13OBgVF8Mrpbe98QBpUi8zSXQbpXTdz0AVG3fQlR71KvKghdua4q3xH59n1vrK9A5o5o5o5rE+aGy/6tq53Vv+WX4/0ron+6a53WPvx/j/AEpdToofxEej/ssrv+M2kD/Zf+Vfoaq7FAr89P2V/wDktGjfR/5V+huOST0B5rrpbH6Jlf8Au/zY1mCqWPas+aYzNk9qfczeZJgdF6VC1as9ZjaKKKkkKXj0JPtSU+GMySKB97PHGfxpoaPM9c0P4b+IPEVzHez2kWql8TbZTG+73OetX7f4PaSozoXiPUdO7qtrd7/5mrfiT4C+E/FFzPdTQ3FpczEu89vIQWY98EEdq4q6/Zs1PS28zw94rmtmX7sUm6MfiUJ/lVFo9J8NeE/EGh6oj3Xia41PTlUhormMFye3Ndjg8MxyP6V87SaX8ZvB/MM/9sWsf9yRJQfwOHqBv2iPFmgsIvEHhlo8cFislvn8waAZ9A3E5kYqv3RVW8g/48nbtdR4/OvMPCn7Rfh7WtQt7S+t7nTpZWCLLIA0QJ6AkHI+uMV6xqzBhZEHObqI/XnrQSfmR8If7B3ad/wkQujp3kD/AI9M793y46Hp1qPxtHoUXjK/Xw6Zjpm2PZ5+d2cHPU1qfAW81Gx1HTpdL0ZNduvspAtHxjHy/Nz6f1qv8S7y/vviBqcupaQmh3eIw1lHjCDbwePWuegeDlluZv16fr+h9S/sh5/4V5oGOv8AaUn/AKUGvUv2uo/DUk2jnxF9o2hX8nyN33sd8e1eW/sh/wDJPdA/7CUv/pQa9i/amvtUsZdLbTNCj1wsjiVZMfulwfm6H6Uq20fU9fFpOhJNX07X/A+CWVDIwXO3J259M077MzfSiaVvOl3JsJYkg49ai5rl1Pyh2JPsr0otnX+LbUXNHNLUm6Jvs7/89KPs7/8APSoeaOaNQuib7O//AD0o+zv/AHt1Q80c0ahdE/lmPLN1HSonkaSm80c1SXUL9g5o5o5o5qiQqk3+uq7VFv8AX59KTAn52sR2pm3dh1+8KXJBLAZFGP41O71WsDQGVZlz/wAtBVfad/PUVYx/GpyfWkIE/wAw/wBYvWqTsTa5LwygfxdqZu8zKN1FIuJMqfvilP7z5T99elSV6A3zfI34VBJGY+vSpx+8yjfeWm+qN+FUnYTsPt5RIoB7VY+bis+SMwkHGfT/AD60GaRsEvitLkF/mjms/wA1/wDnpR5r/wDPSncC+2QpPoKxjqs0edo43Y6Z6mrRmcKfm3VjKxZefT+tM7MPGMr8yOm8R+H/ABPofhPSfEUlosekalMYYLtucsAxx/46a5b+2tV3Z82BgvAwh/LrX0h8Xv8Akzj4af8AYak/9Fy18zgZ/P8ArW1CKnTTkff0crwns43he9t/M2vD+qXGoNdJcBB5W3GwEdc+/tWlJJuIA+92rn/DjE3l+o6ny/8A2aukiiC5/vd6ymvea6Hw+ZU4UsXOEFZK35IIotuT3PWpN2aN2aOaR5gYzUTxnbkKGwe4Hp61LzSN2OMntx7VLVxkXjyQyaL4YBmMm1J/kMzNs+Zf4Twv4dce1cnXX/EG7WTR/DMIlR2jSfcqzBtuWXqoGV6d85/CuPxivQp/Aj9QyzXCUxaKKK1PVCkPUUtIeooA6XwDMYrnXcTvBu0tl+WV03c9ML976HipLeQ5EZOccUz4f3i2t1rqtKkXm6WyDdcCPPPQAg7z7Dmmw/63gYGa4q3xH57n3+9L0L564o5oo5rE+bA9KytYG5U/H+latZWtYCxE++P0oOnDpyqxS3Z6H+y6uPjNoZ/3/wCVfe9zNuXbXwD+zDJI3xi0tsZVFfP4ivvU9ucitqE1ON0fp+HwlTBUlTq7vUP4QKSiiug6AoopexoAVV3Nx17Vfhh8tST97vTLW3AXzD1qyPm5Y44wD6etUUhM0nGRzg1454qk+Leoa9ewaPb21rpiPtgmR41+TsTluv4Vhz/Cv4l6uudU8Wxwg9VSZg3vjatBVj2/UdcsbNSst3BG3fdKP61yGofErwfbMyX+r2rgZ3JnefoBXntr+zK18ytqXiW5uT3Gwk+/zM2f0rp9P/Zm8JWm0zve3TDrumAH5AUBY+ZvEUkOqeKNQfTYiYZrljCqDGQX4wK+3JFkj03SUldpJFnhDM3Ung1laL8J/Cfh24jurLRrdLmLlZXBdv14rd1f/lyyME3UR46daAZ+WngTXtQ8O6fY3em3UlnceTt8yEkNggcZpusa5e+INevrzUbqS8uzsUyzElsAH8//AK9UvD//ACAbL/rkP5U2L/kIXn1X+VctHc+XyyUvbuN9LM9k+FH7RNx8K9AsdMGhjUFtLlp/MNxt3bpC+MYOP/rV9CftOfE7UNe8E+BfEWly3GlDV7bzpIY5c4DLyCe9fDs3+rb/AD2r6r+Nn/JDPhJ/2DF/9BoxPwr1PWzOTjg6kouz/wCCeFFzJ855ZiSW9eTSc0V1vgR5bW11u8to42vobdRA7IHKszYOAQRnHc1j6n5jCLqSsclzRzX1N4R+EPjLX/Dr34vGkKg7/KtLfCnGSqgqC5wO1eReKdU8XeHPES6V9tSZ5GHkstnACwPHTZ1rjp4ulUlypvurq115H0uM4dxmBpKtWjo2k7WbTeyaTumzzbmjmvqjw78H/GGseGzqhvHk2oSWis4MKe4VduXxXkeoap4l0XxdDo15qUex5ABOlrEAynuPkpQxlGps3tfbdd13KxfDmMwUITqrSTUdLOzeylZ6M8z5o5r61034L+KNY0ptRtbqaa1XLbjbW4JA6lRtBNeVeJvtNvda/pN3Mt7bRaW10m+3jjZJA6gEFQD3pUcZSryUIpq6urq1y8fwzjMuoyr1mrJ2dmnZvvZ+R4/zRzRyGI7fTmjmu4+RDmjmjmjmgA/iBqtcwFssKs80ev0pMChHIcYYZFTbivIbK1Wx1+tSw/Nj2Yf1rNlRJOV+de/WkKiT50+8vWo0l29fu96ey9JY/u96QxVxNyPvrTgRJ8p++KTaJP3ifeHWjibkffWkMU/vPlP316Um4P8AI/3h0pQRJ1/1i0NiT5X+8OlAAodeNu4dqX5/+edQM0kfy9u1IrSSdO1PlJv0LHPeOozNtyfL6UbZePTNJct+9HqBQkh9CKR/NXO3bWOp+UfT+tb32oeWwK7uKreE/Dt3408QQ6Xpyot5KTs8w4XgZOT9BWq7Hbg05NpbnvHxe/5M4+Gn/Yak/wDRctfM3p9f61+i3h79nzSfHv7Nuj+GvFbXKSaLLNdxtp04QiUK+OcHIw/SvjP45fDHSvhnrWlW2ky3s0Vzbu7m6lDnIYgY4GBXVh9KSX9bn6hTi4winukvyOI8K/8AH5qP/bP/ANmrouasfCH4car48m1iTT/I225gV/MbBwQ/T/vk0y6t3tLiSB/vxttb0zWVTSR+d5xSnDFznJaPb7kRc0c0c0TBodPu7sNH/o6BvLZ9rPk4wvvWer2PHp05VZKEFqw5pG9xnn2rn18TXHazjP8A20zWl4dv5tc1aKzKQ2pYMwkkkwOBnH1q/Zy7HpSyvGRTk4afIv8AxEaZtD8LeZLvTZcbF84tt+ZM/Lj5f1z+FcbXY31q3iJtNtL3VJLKys1lWIiBZtpYZ4GR1KimxeCdFb73ia4XG04GmAgZjBP8fZyV9xzW8KkVFJn1OX5lhaeGhCc7NHIUV1sfgjR2wsniK6GWUcacCQMHJHz9QQPqDTo/BGhtFCz+JrgSMsfmY0sHDFCXA+fs+B7g5rT2ke56KzXBv/l4chSHqK61fBOjb0DeI7qNCE3sNOBxn7+Pn7Y/GmQ+D9FktonbxJdLMVjLqNOGEYg+YM7+3y49cml7WIv7Vwf84nw7aZZ/EPlPsB0pt/8ApBiyM9MAHf8ASoof9YuDlccf4VJb2reF53fTdZe5ju7T7PcrJbKh56r1PH5daihGJF+g/wD1VzVJKUro+LzfE08TiOak7qxoUc1peHtBuPE2rwafbBPOlzgyHAA71oeMPA994LubeC9lhkkmUsohy2APqKz6c3Q4aGDxGJV6MGzneaztatXuoFCruxnNd/4f+F+s+JdFOp2nk/Z1LD/WYbgVyLKQzK33lJB+ucVM4tw9Tooxq5biadatC3K0/Wx6T+zVENJ1ZL2WFmNvMGl8vBbZjjAzzX09q3xe8P6Jatc3/wBqtogdpkeIY59Oa+HtP1G80m4FxZTvBMvRkOKm1bxBqniBgdQu3uCvQuc/56V41KtisPLkUU1fzv8A5H7bUxWUYyisTKvbTuvxW9/I+w1/aO8DsB/xMJhjjHlf/Xpf+GjPA/8A0EJv+/X/ANevi5c7RgYFLzXvRrT5VzLU/LcTn0lWkqEU4X0ve59nt+0d4HXBOoS+2Yj/AI10en/FLRLqBLiOK8mgb50ZIhg5/GvgxlLdsn6ZFaeneLda0e1MFnqM9vb9NqkEfhXn4nFYmm/3cU/vPtMlxWXZhSvianJPqrpfNXPtTU/2hPB2jXTW15c3FvOPmKtEO/41VH7TPgT/AKCE3/fr/wCvXxHcSTXczSzyNLI3Jds5NFdVDEVpxvUVjxM4zbD4OsqWBfP3b1X3r8T7dP7THgXaSNQm/wC/X/16py/tHeCJssdQmx/1y/8Ar18Xc0c11e1kfPf2/X/kX4/5n29pf7Q3gq+vbOxtby4mvLuZLeCJIvmeRjhQOeua9L83U+M+H9U6dPKTp/33X56fDn/kqfgX/sPWf/owV+sQ/pWlOble59JluMnjaTnNJWfQ8n83U9w/4p/Vc/8AXJP/AIqqtxZ6xqd1aRjQtQiC3CO0k0aBVAPP8Vex0VqeufiL4f8A+QDZf9ch/Kmxf8hC8+q/yrY8OaPDJ4e08kMSYVb5TjqBT5vCrPcySxXrR78ZUxBsY/GuKlJRd2fD4LHUMPXcqjstTKm/1THOP/1V9U/GqVZPgb8JQr7yNMXPt8tfNDeFLjbj+0cA8f8AHuM/zrpYLi8/su1sZb2a5gt02RiQnAX2Hb/61OvJVElHudeY5rh62HlSpO7l8htdZ4LuGtNK1+4VQzRRRv6dHrkwSVHGBV/R9ev/AA/cNPYXJtpGXaxAByPoRistGrM+PpT9lNS7H2V8N/2nNI0nwiLY+QxQbkWSURmMnkgjBzz6V8z/ABC+IEWu+PbfVLXbPFaniQZG/wCfcSB6daxP+FkeI+P9PCjHAFvF/wDE0n/CyPEf/QQ/8l4v/ia8+ng1FpTm5KKaS7J/mfaY/iipjaXs4wUG2pSaXxNareWmuuh9c+Bv2nNL0zwVHajyWliUiOSR9mzOT8y4OcV8w+JPGFr4i+I1lfI4+xQOqLKwwMA5J/PNVdB8UeMvEuoCy0668+4Kltv2eHoOvVa1tWHxE0PT5L+/PlW8eNzeVCduen8PFOngrfFNySTS0Wif5m+M4hr4+kuSjyrmUpNJ+84699F1sj6g8M/tMaN4f8NR2EstvcTW67Y5POwOSTzxXzj4q1K21rxL4oubaVZlOhybmQ5GfMjrhv8AhZXiI9NS3f8AbvF/8TUN94617UrOa1n1B2gmQrJGsaJvX0O0ZI9qKOFlTlCUqjlyqyWn9dDDMuJY5hQnRVFQ5mpNq+6v3fmc+M0vNIuep5PvxS816B8KHNHNHNHNABzR6/Sjmj1+lJgZvr9akj7f7w/rUfr9akj7f7w/rUMaIyM06KUrnHSm0YzTYkTsnSVfvCnY8394v3x1qCKTbmpsbcSx9e9Q0WheJuR99aMiXg/fWlwJcSL/AKwdaTibkffWkMP9YCjfeFMj/dOVY49KfkS8H7601pQMLIu4ijXYTsKwRmOZc/5+lIY4T1k57f5xQrxMw+TFMmTy225zT9RDvIVuVbdio/Advpdx4uto9Y1SbRrD5t95bnDocHGDg9fpTOecehp/gG6jt/F1vJcaM+vxqHzYRgkyceg9K0je56WBtz/cfph8DYbCD4EBNL1CbVbAQXHlXlwcvKMHk8Dvnt2r4h/a2x/wknh/JwPsz/8AoVfb/wAEbiO6+BZki0x9GjaG4xYOCDD8p+XB/P8AGviD9rYZ8SeH+M/6M/8A6FXTQ+BH6dH4FbsjlvgbaeH7mTXTrniO60KRDD5aWrY3jD5LfKf9n06ms29VFvJhFIZUDnazdx2P41qfAu+gs217zvCkniQsYAskaE+Vw+Qcev8ASsu+bfeTFY2iBcny2/h9qmpufB55b22lvxvst+n3fMg5qaaVY/DWuKxO5oBhVYjPzen8X0qrcyGG3lkwDsUt+QNI3i3Q2dTFpmoqmM8yISTj3Pr/AEpQTbujgy7D16lRVqMb8r72OM85VOGDqfTym/wrpvh1cRL4st2dzGgily5Dx4+U/wAWP071dt9SttUaWW0gktolfZsmIJyAM9DjrUvoScHNaOq9rHs186qxcqM6aT2eoZPrnv1o5roPB8Xhq8stVOsah9nuIYWa2/eBN0mDx056CuovtJ+HawXRh1beyWiyRL9pH+u+bI6ewrNQbVzxqeV4mtBVEtGebnGMkZxXf+E/gp4h8Y6YuoWkSiFum7/9defJIJASrbgR1r7Y+Af/ACTfTv8AdX/0Ba86s5yq06UJcvNfWyvovPQ9HJMDQxU6rxEb8iWl2tW7a9TwE/sz+LG6Rp0x/nmoR+zH4tWLlIxtyQT/APrr7JpRWv1Kr/z/AH90f8j6f+y8u/58/wDk0v8AM/OjxNoN74b1JtPv02XMROVrLh/1gr039or/AJKRefSvMof9YKywdSVSjGctz4PM8PDC4yrRp7Reh2Xw+1y08O+LLO/viy20Wd7AZwOK2PjB490jxVqljNpty0iRRMjkjGDn/DNc74R8OjxV4gttNM3kCYkb+Dj8Ki1mb4baDql1p154uuEurWQxyIumyNhh15AIr0UpShy9D2MorYylSf1eCav/AF1PUPhx8SfDegeAjY3V/wCXeZmJi2k9Tx0rw3Xborcb4iyIzMQF9M13Pgvwx4O+IU97B4d8Ry3tzaQmaRJLF4vl56FgPSvP/EoEYCkbgrMCc56cf4VNRyhBcy2NcUsTjcXRp4iKjzOy+Zm/2lcSOFRnZvxpG1K6RsSs6nt1r1H4B+DbbxRqISQIbmWXyUZxnaMV7l4g/ZWTxBaLDLf20Mincs0aHcv6e1eXTliaz5oLQ/RJ5PlWHpqlUhrbs7/efIX26dgMSPR9suP+er19OR/sVrHkHxBg5z/qyTTv+GLU/wChg/8AIRr1Y0521R8FXymcaklSScej8j5fa/nj5Mj0xdSu5MsC7gexOK+oZP2KFkx/xP8Adjr+7INdZpv7MqaXYpbwXVuFX++hyT69O9cdanib/u1+J9NleWZdTp/7ZG835Xt6HxnHqU7khncEe5NSm+nPSR6+q9T/AGMY9av3uo9XjtQ33kijJXPeo/8AhiHjH/CQL/wKI1vSp1re+jy8yymg6ilglo91/lc+V/tlx/z1ej7Zcf8APV6+p5P2IxGhY+IF4/uxGq//AAxchH/Iwf8AkI1v7OXY8b+yq38qPB/hTcTSfFzwIrMzf8T206/9dBX69LXwh4U/ZFbw54s0TWoNcSWfTLyO8RZIyFJQ5wfY19Vf8Jh4kXpb6b7/ADv1/wC+a1pxcb3Pfy/Dyw9Nxmrano9Fecf8Jl4l/wCffTf++3/+Jpv/AAnWv21xbfaLaxaGSVYm8t33c/8AAa2PUPyy8K/8i3pv/XBP5CtXmsrwr/yLem/9cE/kK1ea85bI/IanxsmsbN9Qvre2Q4aaRYx2GWIGSfxrq9R+Gsun6ffTR63pF3JZxtLJb292rygAZPy1g+GM/wDCTaR/19w/+hrXI/D+N1+JfjQnp9ivv5NW9OKknc9vLsFRxNGrOpvHb7iy/iDTo8q04Kg7cCNjzn6VoqwkVWU5BGR/nFcJIR/Z8+P7r/1ruLb/AI94/pUygo2sRmWXwwUYSg2+b/gEnNHNHNHNZnhHc/CDVH0jxRJcJGsjfZ2XnPGSPeu/+Jviu41DwfeW7wqm5hllzng/XpXD/BOztr3xfIl2yrH9lfGXC85WvRPixo2l2fgu9milUTZAGJR1zXFUpYyVRTpTtT6r8+h+h5ZUw8cmqKa973j5a1LWrj7ZLDbsIlhOxmZAxZup/Dmq39q6h1+0J9PKWorn/kI32Tk+ef8A0EUz+IV7UaceVaG+Ey7C/V4N0020vyNfRdYmuLo2twNxxuWZeh9Qf0r33S/gBFqmk2N2urtE1xEkxXycgbgDgc+9fOuh5/thMHHyN/MV9TaPqWoQ6XZRLPNsjgRAO3AFeVjMXSwLXPFu/YywuTYfFY2rT5dEk/v9DgfD/wAKxrHjTVtDk1Bo008b/OVPfHTPvVvx58Hh4L0E6mNSa72SqnltDjrnnNTeFNSuT8QNduI5XSVlOdvfkdau/Ey/vJvC7LPI8i+aud/bg1zf2hSVRUeR3lb8TCOS0XgK2Isrxc+/RtHkC5Cjv70H+lC/dGKD/SvQ6HwJmjv9alj7f7w/rUQ7/WpY+3+8P61DGiOiiiqJDGadDIVbjpTaP4hSGTsdkiyL+NEmF+cfeWkuP9Wn1pZPun8Knsxit+8iEn8YpFxcJg/6wUL/AKg/WoF9R97tQl2G2TQx/vMN95aZMS8pHp0qVWEwwf8AWLQ02zhhkrS6hZWIfIk2kkZGKvfCuLVm8eWo0G5gtdU+fy5rkAovynOQapNMzZOcjFQ+DV0m48UQLrN9Jp2n5bzLiHO9eDjGPWtY3vqelgLKendeR+oHwkXU1+Dcw1m4iu9TEM/nzQACNm2noB7Yr4X/AGtP+Rn8PcZP2WTH/fVfbfwJTT4/gKq6VdS3unCC48mabO9lweuffNfEn7Wv/IzeHuNw+zSZHturoofAvn+Z+nxfup+hm/s3xeKZP+EiPh2/tbOMPb+b9qUEMf3mAMg4/irl9S83+0LkTMrzeY29l6FsnJFWfgrB4amn1w69q1zpkimHy1t8/MMPkHH4fnVK62C6mET+ZEHOx/UdjSq7nwedy/e2vt537dOn6lLUP+Qfc/8AXNv5GuSh/wBUv0rsbiEzwSRjaCyMAzDpkf5/Kq58D2sJEY161KLn52t5fTOMbfX+VOnJRTcmb5DWp0+eEnZyat57lLwv/wAedz/13b+QrYYZ7ZPaorbRG0NZIxN9ojlfzFkEZRTkDIAIBqY9CT9K5vaRqNuDueXm2GrYfFz9rBxvqr9UQafNH5BXOWVyTwTVlpUCk/j0IqxpV62kR3kcMaSG5j8tt4zgeo9607rxdPdxyo1tDtliEWdvYZwfrzXUqisfQ0s8oKmlJNM5qxbdaoyjd1GPxNfVXwb+L/hvQPA9pYX1y0E0PylQAegA7/SvlqGPy4woPA7ZziklmWHBYZJ+UcE9a86tRlVlGdOXLKN/Pfc8XAZlPDYipKnT5/adPndbH29/wvjwevzf2g/H+wP8aRvj54P+99vY4/vAD+tfDr3KbShSROMDcpwaZHj7KOntg5qJRxcf+Xv/AJKj2qmfTovlqYaz82ztPjF4ktPF3jS6v7I77Zvut61wqttkB/u0+OYqvK7hWfrGpSW72624VC+7dlN3TGO9Xh6PsYRpR1sfL1J1M0xcp6KU3t0O6+HPiK20PxhY3uoyeVaxk7n79DWJ4w+D3hjxT4q1TVk8fQ263lw84hOmu5Tcc4J3jPWuSOpXuSPNQ4Gf9V/9et/wHG3iLxRb6XePiOaaGPcibcBic9/YV3pTprY96jTx2WUXZRcb/nZHe/Bvwr4b+Ed9q183i5NXa7tvISNLJ4dpyT13GvPvEBErb1HyMzMB/dBOa+jdS+AujWtjcSpeTl44mcE9OBkD9K+cNazlARggf0FKqpaKSMcbUxca9KVdKLV7WO//AGXbm4g+LWmWwf8A0dwzMPoDj+Zr7xb7x4xzmvg79mX/AJK9o/0f+VfeJ6fjRh6apwsu59jSx08fBVais1oJRRRXQaBUkMPnNz90daSOMyMAK0Y4xGoAqkUhVXaoUdB0pGx16YGc+1OHHNUriXzGI9KYzyDxV8dr7w14hvLO+8L3BsYH2JcKzLuHr93bVnSv2iPCmoqPtElxYvxnzocgfRh/hXpc1vFcqVliSUejoGrDv/hH4V1tWe70i3Lt/HGoVh+NALUv6L468N6oqtaa1Zzbv4XlCn8ic10ayJMu6NldT0ZTkV4zqv7L+hXTGTTdQutPl527iGH51zU3wQ8e+G2Z9C8Qfah0VVmKN/49xQOx9GdwaytUm33FiPS6j/nXzHp/x48X+F9Y+xatcC6W2l8ueNwC/HB2sO/P6V9IzTLcDTJFIKvPEwwc8E0CPgP4U/DjWPGngo3unBDHZQqZd2f7uTjANZjKVZlLZKnH5V7b+yP4+0nwn8JvEFnqDolxeWv7rc4Gf3JAxmvFJmDzSFTkFmP6mvNjfqj8wxlGnCnTqR3le/3j7O6ksbyC5jCmWGRZF3DIyDXqOi6trPjzQ9ZK22kWSbDDLJDabZCHXoGzxXk59ScCuq8K2GkXWm6g+o60dMuFx5UIl2eYOOevPb86cpSjCXK+jNsrnJ11Rb92W6va/wAzJ8ZfCmDwjHYG4EUqXiGVfKDDbgjr+dZar5ahRwAMCun8aWek2q6cdL1k6uXiPnbpd/lEEYHt1P5VzPNCbsrmGYXjiJU09Ftrf8Q9MjqcZHauNtdQu5reN2uZt5GSOOK7LuK4aw/484f92uiik73PZyGjTqup7SKdrbq/ctPcXEnDXEn44os5JYtSs/3zsrShG+hB4plLD/yELH/ruv8AI10SjGz0Pp8RhqMaE+WCWj6LsXb7RL6TVJPslpLffaW3KtvgsGwBjGeen6U7/hFdfLsv/CPakzIPmBi+768A13vglp18WaS1tEs1wLpPLVjtG7dxzXtv9pa+Ne1HZpEBfy3BVbgdMHnJrhliJU+SPd2PNyjEVcRhpcz+Bae6399mfLOg6ZcQ3huriL7MFBQRMfmJ7k8+1fUOlfHDwlb6bZQySyLLHCqOpg7gDP8AKvALrc1zNu4O9srnoc8ioPLDHJAP161ftHdux85HNq8K06zSvL9D1Lwf8RND0XxxrmsXjyLZ3gKwkRZ53Aj6dKv/ABQ+Kfh/xZ4Z+waXK8twZkb54tmFAOefxrzu18Da7qFuk0GmXE0LDCt5XH51kXFjLY3DwTRtFNH8rI3ajmdmmgljsTTw8qUoWjK+tn11GD7uR688/SkP9KXdmkP9Ky6HgmaO/wBalj7f7w/rUQ7/AFqWPt/vD+tQxojoooqiQo/iFFH8QpDJrj/Vp9aWT7p/CkuP9Wn1pZPun8Knoh9wX/UH61BU6/6g/WoKa6ifQUcHd3HSpwRcLz/rKr0c5BFNq4XsK6sMjuAc1Y+G9wbHxpbSnQl8R4D/APEvbGJOPcEcdenaozcErgjPFWPhjBqt345tU0W/j0/UDv8ALuJvurxz+dOF76nqZf8AxNO6P0r+DVx9r+Cby/2Qug7obj/iXLjEHyn5eAB79O9fDn7W3/Iy+H+f+XZ//Qq+5/hBDqFv8FZE1W6jvNREVx588P3Wbaf6Yr4Y/a0/5Gjw9xz9lkx/31XTQ+BfP8z9PjflV/IwvgBqX2OTxB/xRqeKN3kDc239z9/5RuVuvtjpXOavcMl3cSC38nLsfJ/uc9K6j9ney8SXf/CQtoOqwaWiNb+Yk3Vid/T8j+dcp4gWRbi6EzrJKJm3OvQnPJpVNz4fOk3Wje9r9lbp13+8zZtQma3leOP5ljYg+nHWqXhbR/E/iyYR6RPc31yiiUokUPyj8V5FdP4K1bT9JlvZdRi8yJrWZEbbnY5U4b/PrXV/soXMNj4nvLi4kRIfsuPNfCjJ7Z/z0rmw8vazqQnHRW+Z9TgMtw+Fw1HFU3ectf8AC127HCeN9a8c2skej+ItRuYTAqyRwvbW42+hBWPv9e1cr9q1LnGqT4zgYSL/AOIr1L9pG6gvPiZLJbypNH9liG6MgjOW4zXltd1OhSpq0IJeisehiF9caeJ99r+bX87ktmusahdw20OoXMs0rBEXZFyx4A+53zW14k8HeMPCEUU2sNeWEcrYjd0gxnjI4U+1M8CyLF400GSRlSNb+Fi7Y4+cV75+1VqFvqXh3RjZ3Md15Uzl/LYHbkLjP5H8q05Y9jj+pYX/AJ9R+5HhOg3Mt5pNvLLIZZCpy7qOoJ54Arp9R8K+T4X03Xfttu/nXXlfY1OZE4kGT7fL+tcn4Zw2g2ZJydp/mau3sxh8h2VmVZAeBnsa4425j4PDSp08w95acz8ra7mlaajHpOpWN7LaRXiRTqxtpQCj4PQ5B4qTxZ4it9f1yS6t9Mt9Kh2hBa2oARcDqMAdf6VR0fxBDZ6zZXBs/tSW8wbypBhWxg81p+MtWt/E2qPdwWMenR7FQQRdBgVdVpq1z088qxk4qE0/L/gnPyQhWyDnHNYetf8AHzan2f8A9lrbWQxjaV3AdKz9ZtJtQ8lotkZj3Z3Z5zj/AArGm+WSbPBy+pCjioVJuyX+Rkj7o+tb/wAOAx8ZQbN2/wAyDG36tWN/ZV91MkGMY+bNdF8P7xvCvimHVbyOO4jjeN9sP3vl3ev+9XRWcalNwT3PscXmWFqUuWE7u8e/SSPo+8bUPsM+fP8A9W33t+MYNfNGtHKxfQ/0r6E1D9oPQdQ025gitryOeSNlUFQQCRjt9a+e9abKxcY+9nPXOa8vD4NYS6U+a5z55j6eOrUXTtont8jv/wBmX/kr2j/R/wCVfeJ6fjXwd+zL/wAle0f6P/KvvE9Pxr1afwnoZX/u/wA3+glOVdzcde1J2NXbW3AXzD1rZHrofDD5akn73epPvMBTtxIyfwqvcT7VxTKGXU2cx1Wx8uM4PbjJo7ZqW3hEsgJPyqckevtSJ3Kkmq6bp/zXt/Z2mOiTyhT79axdS+MPg3TMibXbZmHRYgz/AJECuc139nnR/EWv3mpXep3rLcymQwKwCpnsParll+z34LscE2ElyV/56yls/hTLRmah+014Utci2hvrxx/cjUL+rf0rnLr9qG9vGK6N4Vd/7ryOz/8AjqoP516xb/Dnwto6j7PodnC46fuwTV2Oyto+I7aFQPSMCgND5Dt/APinx14ikuDpFxb/AGucyPJLEyJGC2Sfm69K+s2gW0XTIFJIjnhAz9av+2MD65qref66x/6+o/50rk3Pz4+GPw11Pxt4NgvbBEeCwtlaXcSMfLk4wDVRlZWZSMYPrmvdf2P/ABlpvh34SeI7a+/1txajZ06GEjv9K8OuG3XEpH3dxI+mTXmxv1X/AAT8yxdGFOlTqR3le/3j7COObULWOYHynlVW29cZ5/Sur+L2g6BpljayaNbyQOFYP5jliTjjvXJWtw9ndRXCjLQsJB+BBrY8aeO7/wAe2saXlrb2nlKwRo++RjJoalzJp6dVb9ehWFqYeGGqRqL321Z9tdTyhbi6gsXeO7mWQKSV+XHT6V21u7SW8RJ3FkDE/UVzMnha+Nt5XnwEbNhxvycjFdTDEzbY8F3wBhRknj0rpqOOnKdub1sLWUPq1r63srdhf4gP4u1cFZzBbWJW+8F5r0H7LKN+InxHy2UOR+FNXT2YqBayZILBQpz7mphPkOTL8e8BzNQvzW/A4b7QlPtXEuo2QQciZTnBOBg12i2L7VfyCV3bQ2zgn0HvTvsjokjeQwWP7zBOnI4NW6zatY9SpnsqkJQ9numt/wDgHM2XibVdPvxe2t75M9vKWify1O3aeDg59O9eqfDfxZ4s8a6jCLvxMunvc2hlkujaRy54HG0Ada8vbwjqiyMi+XltxQFGyQckV2HgfWL3wGbe5XTY9SaCD7OyyhggOBkms6qjKK5bXXc6JYzC0lSjRlZN+9y3WltSPWLU2OqXVv5y3BjkIMoXbvPrjtWRq00lvp80kZ2uoyG9P0rS1DUJNUv7i7dEjaZzIVToM9qytb/5Bdx/u1C6XPlI8jxCUfhv+FzodH/aI+IOj6Xa2Nr4haO2t49sai1hOMfVOa52HxJqPijWNSvtTumu7mZ1kZ2RV5Oc8KAO1c0n3V/z2rU8M/666/4B/I12Vbcp97nUV9Tlptb8zoB0pr/dNL/EaR/umuJn5yzP/japI+3+8P61H/G1SR9v94f1qGCI6KKKokKP4hRR/EKQya4/1afWlk+4f+A0lx/q0+tE3+rb8KnohhCwaMg+p69Ka0QHzDt69aj/AIqljbcGP90Zp7CvdWZF70U5+x/vDNN/nTAa/wB0/SjwRaaHeeJoI/EU0tvpOW82SH744OMcHv7VPHbs6sW6AcVf+Gt3dad4ytZrLSP7buVD7bPGd3GOn0q4nqYBJz18j9HPgXBpFr8Bli0GaW40hYLj7PJN98rg5zwO+e1fEn7Wmf8AhJvD2Bk/ZpMf99V9y/B26ub74KyT3enf2TcvFcb7PGPKwpAXH0/nXwz+1sceJfD3GR9mf/0Kt6HwL+up+nR+BLyRx/wWtPB1zPrh8UXlxbSoYfIEH8S4fIPB9qydaWJWnEBJgD/Jn09eldX+z9q2p6bJ4hSx8Mf8JCreRuk27vLHz8fj/SuW8QO0k1yzp5TtISY/7pz0/CpqfEfD5wl9YTS69n5ddn8jnrr/AI9Z+v8Aqm+n41dmaRfAGhiF2SAvJ5+04Bkzxu/4Dtqjd/8AHrNxk7CB+Rq94TP9peG7/S+snlfarfHXev3h+IrSj1PVyX4Zr0KOjeHdW8SNMmk6VfaqYQvm/Y7dpAhOcZx64P5GtX/hWXjLoPCet4/68pP8K+wP2LPDK+H/AIYSapMmJ9aumnVj1MSfImfx3/nX0Keua6Ln0h+VmseDfEOgWf2rVNB1PTrbeqfaLq1dEDEgAFjwMkirfg53LaqjFha/YnaVCfl4I2+2c9O9foT8evB58c/CPxNpccfmXJtGntl/6bR/PH/48or89bSQaf4GWYDZPq0m1W/6ZRj+rEj/AIDTuAnhcj+wbQkBThiQP9416/8ADP4b6T4w8L6jfaksjPbylE8ttvAQN6f7VeP+F2zoNpnlNhH0+YnH516f4D8A6n4q0K+vLLXH0yCF/LeNM/OwUHP615v83zPzzCxU8wknDn1eh1vh/wCDPh3UI7mSRbtXhQOm2Uen09q8afG4hPu9unSvU9D+GfiO7hufs/iiaDy4/mX5uRzXlkg2yMAcjOB9K5cK+bDxblzb69zq4gpxp1Y8tH2e+mnl2GMob7y7qb5af886fzU1i/l31uxj83bIpEf9/n7v410ny8VzNIrNHGoLGPG3nPpXYeEfFPhux8NRW9/oVxdXn2xJvPWGNv3WVJXJcE8KeKf8QtV/tO3tVbw+mjOgbJRdpbjj/PtXHWXn/wBipfG2mNrDtjabGQG2jj/PrW9NJM+xwOX0qFerTrtNxS/H/I7fxN4w8MXmi6lFY6DPbXck/mQStDEPLj5yM7yR+Feaaw4kSFh0IJA/KtSTz7jSpbyOCZrVT5ZlxgZrJ1Li3twTlgpz+lFS2jRGaUaNOrSnS63PQv2Zf+SvaP8AR/5V95cdT1zXwb+zL/yV7R/o/wDKvve3h85snop5rSlse3lf8D5v9CS1t97eYe3SrZJJ5pNu3gdO1IzCNSx69q2PYGzSiJc/xdqoSMXbJ60s0plbJ6U1FMjADp3pCHQxGVsDpWgqiNQo696SKIRLgU/GSOMnNMYU1mEalj17V5lq/wC0F4c0HxBd6XqEV3bvayGJpghZT9MVp2Pxe8K64wEGs28efuxyNtb8jQB1U0plbJ6VHUcF9BdIGhmSZexRg1TNnjNSyWNqtef66x/6+o/51Zqtef66x/6+o/50IEfmp4bt1n8P6YT1WBCPyFdXoXhrVfEdx5Om2cl3J/sDhfqeg/H0qv8AB3wjN40XRdPjGIvJR5pP7iADJ+tfYmheH7Dw3p0dpYwRwRKPm29SfU+9flXFPF9Ph9RoUY89aSvZ7Jd3/l+J4HD/AAvUzycq1WXJSi7X6t9l/mfO9v8AAPxTJAJTHaRH+5JMcj8QMfrXNeIvh/r3heMtqFhIIAf9evzp+YPFfY0en3U0fmpbyNGv8arkVTu7VLqGSGdFlRhgq1fmuH8Rs2o1FPFUoyg+lnF28nd/qfe4jgHLalNrDVJRmuraa+asj4dur5LVk8wMC3IVcY/n716J8D/COpeLfE1pqdhaebbadMsjoxUbgD05/L8ap/H74cp4P1S0urIBdMvS+xe8T8ZH05r1z9jNS2i6uw+dg/LHpmv6BynH4fNsNTxmHd4yXz80/NM/MqeTSwmNeGxS96P49n6dTqr/AOH+uXreOmXSkT/hIlgWD94g+z7EKnv368Vet/AOt/8ACSaJqY0hTDp2mPYPGJY8u7A/P19+9b15car9ol2eL7KJAxAjaFCU56VS+DfxA1fxRf6tDqU0VwtqwMbRxhOM+3Wvd5UfR/VKN72/q9/zZgWvwt8Qw+GtG0x9Ljeax1pNTeQSph0Em7Z1680+++GOvXWl+N7YaSgOuTmSFvNT9wOOOuc8dq95Vtyj0ycUbSwIxmnyof1Oja1vL8LfkeKR+Ddat/FfhrUm0RfL0mxa0kiEseZSyBd3X2rmNY+Fuu3Hw51TQk05ftE9694s6yrhVLE7Oue9beh/EDxD4o8RazaTa7a6Xb2UrLEJIUO4AlcZNeh+FpbyRZvtesW+rsMANBGqeX7HHrS5UKWDoyTTW9/xSX6HwRqGnzaXfTWk6bJomKsPSqdxCtxA8cgUowwc/wD666r4lf8AI86x/wBfDfzNczzXG1Z2PzKvD2NaUI9G/wAD1zw3qXwZg0Gyi1XwpJNfpGFlcSSkM3r9/vXmeq2+it4ovZtEs/sWmXEwMUJJO1Mj5eST/wDrrP5qW0/4+4f94fzFU5uWjPQr5lXxcI0qlrX+8+zNH+GXgmHwvY3d3ottKWhUs7gkscVoWPw08Dalv2eHLY7MfeQ9/Tn2rRtreSbwbpDRJ5hjjRivrwK3NN1A32//AEZ7cKB97v16flXXZWP0VUqaXwr7jl7n4Q+CLeFpW8N2eF/6Zk/1qrp3w58AahMIk8O2wfrtdCoP613t1L5Nu8mzzNo3bfWsSzaa/wBdhuPsrwJEhU7u+R2p2XYfsqf8q+4+Nvj74fsPDvxCurTToEtbZUDiGPOPwo+H/wACta+I2jtqenXNukCuYyH+8K0P2mcD4nXm05PlLg+nSqnw9+O2sfDvQzp1jawSRNJ5pZhknIrk93nfMfATjhVmFRYle78/0Mjw78K9Q8UeLr7w/aTxfarYFWaTO04OOtQ/Eb4a6h8NdTtbPUZI3lnjMo8rOAM461Z8M/FW/wDC/jK98RWsEL3V0xYq5yFycn/PtVb4lfEu/wDiZqNre38McU1vF5Q8roRnNT7tvM56n1H6tLk/iX032v8A5Hb/ALNvhnSvFXi66ttVskvoY7feqSAkA19C3vw88BWdw8TeHrZ3VhnYhwD+deGfskMG8cXxxytmSD6c19KiSXS9Wu2Nk84lIIZfp3reilyH12T04SwcG0uv5szF+D/gmSNZB4bs/mww+Q9/xqnqHw18B6fJsbw5bB++2Mn8+a76Ni0KsU2ZA+X+7VDVr82rbBZPPwfnXtkd62sj2PZ0/wCVfceZ/ET4Y+Dofh3rF/YaHbRyxW5eORM7lb86+OY7dVZgx5B6dxX3N42tZbP4R63HKu1xbOcfiK+H1+6P8965qqSaPjc/hGM6fKraMRz+7IHQCpfhrZ39940totM1RNGvSH2XkmNqccg59RUUn3G+lQeCzoi+JoT4hWZ9L+bzFt87+nGMc9cVktzyMB8f3eR+mXwet7yz+CskN/qCardrFcb7yPG2T5TyMfl+FfDH7W2f+El8PEHH+jP/AOhV9v8AwPbSm+BZOiLMmk+TcfZ1uM79u05zk565r4h/a1/5Gbw96/Zn/wDQq2ofAvmfp0fhXy8zF/Z80nWdRfxE2leI4dCiXyDIkuMv9/kZ/H865XxArxzXSySebIshDMOhOev41q/BNvCCza7/AMJQl082YfJ+y78hcPuztI/2etZGt+Tun+zgiHf8m7rj3pVNz4fOGvrCV+ve/bp0/U568/49Zv8Armf5VH4RmuIdV0oWsfmzySpEsfPzbvlI6eh/SpLsbrWb/rm38jXpP7I3g8eMPixo0k0e+00mE3jk9A4GEH5k/lV0ep6uS/DP5H3D4S06DSfDljY21v8AZY7OMQCLn5dowf1z+ddLa3W7akn4VVmtzbtt6j+8Oh9TTOjAj7w6Vt1PoupqXUscULvJu2IMnau44x2HrX5nfGK0XRvH2p6JFZtp9tpZW3gtWbJWMqHBPpu3lse9fpVbXCynaw3MO3r7V8U/tueEzpfxG0vXUjxBq1r5UressRwT/wB8+WPwqkUeLeGuNEtSBuIVjj8Tmuv0Tx9rvhjTpbHS5kjt5XLujIG+bAHH4AVx/hkk6Ban75wfl+rHivbPgr8NYfEUzavqce6zgk2Qx/wyMOp/3RwPrXy2b5ph8mwk8ZiX7q6dW3sl6nwOAweKx2aOhg9JNvXsr6tkHgvUviXq0TnTNNtzbzDaZ7hNq4P1P8gaqXHwD8V29v5iR2tw4HCwz7Wx6DIAr6ZhjVVWOKL5RwqgZx9KsS2NxCoeW3kRT91mGBX4FU8RM1lJ/VKMI049LN29Xf8AKx+0T4MweIjH67WnOfe6X3Jp/qfEuqaLf6FcG2v7WW0mH/LOVSPyPf6iq0E8lrOk0RVZIyGVj2III7eor7A8WeErHxfpb2V5EuDyky/fRvUV8oeJvD9z4X1270y5/wBZA2Af7y9m/EV+r8LcWUuIoSpzjyVo6tdGu6+e66H5TxHw1VyGcakJc1KWz6p9n/mLrfi/WvFaxHWLpbsQ5WNgoG0E89OtUI7yWLTWsFfbZM+8w9i3TNQ80c19/d7nx8q1ScnNy1ZKt3MuntYrLts2bcYh0z7Vja1grFg+ox6dK1Ky9a+7F+P9KRpSnKVSPM7noP7MK7/jDow9n/lX6BRrsXHvX5//ALLv/JZNE/4H/Kv0BHY11Utj9Byv/d/mwLBVLHoKozTGZv8AZHSn3E29selV+GyT1FbHrMD6Dr2q9bQ+XHuPXvTLWDo7fhVjJLEmgELndzRxtPr2Hekx39Kr3FxtXFAzG8ReF9E8RMwvtMtbxm6vJCu7/voc/rXBax+zz4S1Mu1vDdWMhHH2aUnH/fQP9K9KZ1VdzHaPXiqF54h0uwXdc6hbIP8AblHFIVzxW6/Zz1jSWMvh/wATPEf4Uk3Qfmyk1Sa1+L/hFhsd9UtkOD5ZSXP04DmvUr74y+D9P3b9ZhkK9VgzI35VzGoftK+G7bm0gvLwg8fJt/nTKOU0D9pTVLTU47TxDpsHlK5jleHcjxjuSpJyR6cda97uJVmbT2ViyNcxsPoTXxlcWN/448VzyWNhMZL66LIpUtt3N1J9Oa+yFt/scOlQE5aOaFDnrxxQB8ofsh6fG3hma7I/feTDEG9OM/1r6f8AA+jx654ltLWYhogzO3vtycV8p/suam2hyXvh67Gy5UGPb6TRMyOv5j9K+ndE1abRNSgvYD+8jP3c43DuK/k/ijkwvFXtcdG9Lmg2u8Ulf8mj7Lhhqrkap0HaS516Su/80fRVvDFbW6QxxrHEo2qq9PpXk/xY8P22nXlteW8axfaPldV6Z9cV1dr8VNEntfNmeSKVVy0RTJB9Aa838c+LD4q1BXjjaK2iGyNW6+5r9A44zzJMZk3saFSNSbtycurjrq/LTS3yM8nweMpYvnnFxit79f8AM+f/ANo+1W68IwuRl4d0if725B/ImtL9iYBtD1rjeeDz0HJrB/ag1aOx8O6fbf8ALS5Z1/4CNhP9K6H9iMFdF1gejD/0KvX8NoVI5MnPZyk16bfnc+e4glCWdpR3UNf69D3O/wDA+htcSTSaRZyGRixcxLkmp9N0Ww0dWFnZw2ynGfJQLn0zXQNGJIyD/nis6aMxtg9O1frDOBktrcGGQBjla0T9044HUE9KxcBgQavWdwBiN/woQIpXHgfw/cTNLLotmzv8xYxLksepp1v4b0/Sd7WFpDahh8/koFzjpn9a1z19qMUxn53/ABK/5HnWP+vh/wCZrmea6n4oHPj3W8f8/L/zrlua4Zbn5RjP95qer/MOaltP+PuH/eH8xUXNS2n/AB9w/wC8P5ipOWPxI/QLwp/yLOl/9cF/lWpXDahrt14e8C6FdW2zBaGKXcmfkYgHFbPjzXrrw/pkE9sVE8l3Db5ZQRtZgDwfau+x+v2OgpV7fWubk127g8eWekuAtpPaNLgL825cd/ypL7xBdRePNO0pHRbZ7OaeVXG4sQygc9u9Fh2Pk39pj/kp93/uLXksgLFADjcyr27ke1ew/tJWol+J170wYxx27VxJ8SxW/g8aINPhLPcrILw/6wfMvH6VyWvPU/Pp04VM1cZvTm+/XYwl0MzNFFHM3mO6xjzcbBk45wM1reM/BN34HvILW8ubW6eWPeGtGJUfXKiqMlqb0JbhsM5VNzdBk9f1rY8Y+C5fCd5FBc3cV20ilg0TbgOf0q6kVa6R6Gd4elTjGVOnbzWn4dT0r9kb/ketQ/69D/Ovrpuo+lfJX7J8axeOL8gZJtMfrX0j4c1y61DxL4j065KGGxliEG1MfKy859eaumvdPWyf/cofP82dFRXL2fiG+ute8T23/Lvp6IIP3ePmMe5v1q34N16bWvCNrqNywWYqxkYrjkMc/wAhWtj27FH4rf8AJOfEH/Xq38xXwcv3R/nvX2fq2tXfiL4F6jqN8ytcz2khZkXC48w4/TFfGC/dH+e9c9XofF8QfHT9GJJ9xvpVTwl4kPhPxFDqS2kF8Yif3FwMq2R6Yq3J9xvpXNP95/xrA8PBycW5I/RfwX8cPDPg79nTTvEXiu5j0C31Vp7eCG3tJZlMpD4VVjRiMhSckYr4v/aD+IWg/ELXtJn0K7kvorWB0ldraWHYSxI4kVc/hXonxe/5M4+Gn/Yak/8ARctfM4/rXTh9aSf9bn6dTblTi31S/I774P8AxAbwXLrMa6VZ6gJjAxa4TJXAfkcHH3v0qjrU/wBq86bCr5jbti/w57VheF/+PzUP+2f/ALNWxqH/AB6sT17VlU+I/P8ANK0541wb0TVvuRk7Q2QR1GO3T0wa/Sf4Y6Lp2meDtHmstOtrKaSzh3yW8Spv+UcnAGev61+dug+HbvxFfJbWkbSzMMqq9fev0a+H8w/4Q3Ro2zvS0iBHYfIKKFSMpSgnqj6jKsJWo0fb1I2jPZ97bnRTRrNlc7u+azJozE2DWrzxmo5oRMuD1rsPbMxPlbcPvL0o1DTNN1+226jp9tqHlhiq3MKyBSR1GQcdBSyRmNtp6VFI22KQ/wCyf5UhH5/eMLeK38TapHHGkUaXLbY0UKF56YHAr6j+HOnx6f4E0SKMZ3WiSH/ecBz+pNfL3jRs+LtXbOP9Jf8AnX0b8G/ECa54F01A/wC/sl+zOn93bwP/AB3FfiHidTqyy6lOPwxnr9zs/wBDHgapTjm2IhL4mnb5S1Pob4SeH7e4jn1KZFklRwse7+Hrk/yr0i+s7fULd4bmNJImGCrDPXvXi3gHxt/wi80sNxGz2cpySgywI7/rXd6p8VNJtbMval7mcr8iBcc+9dHCOe5FhMijRrVIwcb86e7d9/71169j7PNMHjamNcoRbT2a6f5HlPiTTV0fXLyzj5SGQhCT27D9a+a/2jbBIfEGmXafengZG/4A3/2VfROoXT6jczXExxJI+8+xJ9a+ZPj3r8eseMktoH3pYxeU3s5OT+m38q/O+CI+34klVwqtTXO7dovRL72iONJxp5HyVneTcUvXr+Fzz3T9Lu9Yuhb2VvJdXBBIihQsxHc4q6vhLW5r6SzTSrp7uJRI8IhO9VPQn0zV34fw6rP4kjXR7pLO/wDLfbI7hRjHIyfauv0ux8XTeMtXit9XtxqKxIZpmnADDHygHviv6djG/Rn4lgsup4mnCcp2vK34XOBtvCesXUlwINKuZTasY5gsbfu2HJDe9cxryNE6Ky7SpYHPXPFew+HbfxZdNr72WrwQsl05u/MkUGR9vJFeS63aS30jkFd6sxduxz1IqZvli5NG0cuhGrh4xnd1G16a2O3/AGXZjJ8aNFA6fP8Ayr79uLgbdgr4i/Zz8PNo92NfiEM93bS7VD9hivoHXfi9f6DpNzqFxp1syW6bj+8Y5OelcWHzLDpONSaTufrEsjrUYJYam+S3/DnqGAcE9RVi3tzI4Y9q+aI/2uiygtoCMQevmEfhVlf2xDgAeH04/wCmpr141YSXMnofMV8XQwtR0q07SW6Ppsnt6UV8zx/tiNJIi/2Ai5IG7zCcZOK9Hh+KuqTxpKmmW2w4IO89DjPf3rmq4/DUXapNI9rC4LEYymqtCHNF9UemTSBF/wBo9KosSWLHkqM46ZrxDxr+0ZceEb+G3utKhmmmTzfkkIwM4H8q55f2uv8AqBp/39rWliqNZXpyujix18tssX7l+52nib4N674l1y6uW8XXFvYSuWjiXf8AIvpgECq1t+zLpG4NqGsXl6/8TIFQ/ruNcr/w11/1A0/7+0f8Ndf9QNP+/tdHtI9zy/7Uwf8Az8R6VY/APwZZ4LWD3YH/AD3mYn/x3FdHY/Dvwzp4/caHZoB03xh8f99ZryXwp+01ceL/ABfofh6y0JPtmqXQto28wnZwWZjjsFUn8K+jv+EC8SE8XGncccq/+NNSUtjso16eIjzUndGLb6fbWa4ggigX0ijCA/gBTb3PnWBPT7VH/Ot3/hAfEv8Az8ab/wB8P/jSL8O9fkurVri4sBDFKsjGMOG49OaZvY+Q/wBq34U6l8HfiZceNtJhkTw1rV19qNxECRZXjf6xX/uq7ZYE8csO1b3gH42aT4itYLfVZo7DUNoG9sLFJ/tBu2fevuLWNJstd0+aw1C1ivbO4QpLBOgdHU9QQetfMfjL9gTwpqV9JdeFtYv/AAvvbJsVxPbL6lVcEr9AcV8ZxDwvg+IKajXVpLaS3X+a8jnwtbG5TiJV8A04y+KD2fmuzCG8huIjNFKkkX99XBUe+RXLeK/iloPha1cyXyXV0vC29u4ds+/p+NQ/8O/dc3ME8ewsmfl36ec4/BqRv+CfWuN18eW//gvP/wAVX53hfC+hTrc+Jruceyio/e7v8kfQYjirNKlLloYaMZd3K/4WR8wfE7xheeNtcTULptq/MsMIOViTjge9fR37Ef8AyB9a+q/zp+of8E7dduvLKeO7XK5+9YH2/wBqu5+DPwdvvgTqWoaHfavHrDyxpOZo4TGBljxjJr9nweFhg6caFGPLCKskfE4Ohi/buvineTvd+bPYx938aiuIBOv+0OlSKwZVYdCKXHf0r0T3zHkUxttPUU0evpWjdW/nJuHUdKz24wD171PUlmjZXSyAI34VabuKw1Yp8w6ita1uBcRjH315J7imM/PX4nf8j7rf/Xy/865fmvqib9jbVfidd3XiK38XQadDeTyMtq1lvKYcjru9qT/h3vrX/Q+W/wD4L/8A7KuVwlfY+CxGUYqpWnOK0bfXzPljmpbT/j7h/wB4fzFfUX/DvfWv+h8t/wDwX/8A2VMk/YD1nT0a6PjqBxApk2rp/XAzj71TyS7GEcmxiafL+J2fi6HzfhDbt/zyjhl/Ig1b+I0pvrHwvGPvT6nbyfgFJNWNe015PhbeWiAvMliQoX+NguM155oPjDUPGfiTwlp9xpb20Vi+55dpO4iMjv8ASu0/RFsegeJ8QfEbwxP/AAyJLAPxWmxsbj4zzP3g0cK3GfmaXn+Qql8Ybq50f+wNWtrdruSyut5SME5XHfiqfww1q68XeLde1m4tJLM+RDAgZT0y5Pb2FBR4J+0dlfiZer6KvfNeT3kLTW5VSQ+eNpxX2H4s/ZX1D40eJtR1q08TQ6PHHJ5P2d7XzegBznIrK/4d761/0Plv/wCC/wD+yrklGV7pHw+Ky3FzxUq1JdbrU+Rxa3TMm+Vzj/brTeRpGGWLYGPmOa+pf+He+tf9D5b/APgv/wDsqP8Ah3vrX/Q+W/8A4L//ALKk4ze6Mq2XZjiGnV1t5nCfsp8eOL8+lof5173pLfZ/ivrsH/PaxiuOuOjkVz/gH9m+/wDgZ4qgubvX4dbXUYZIlCW/leVtwSepznd+lJ8QvEl74L8e2+rWmnyX4msWgZQDgAMD298V0U7pWZ9TltCeHw0adTdX/M3vAsYvNc8ZTn/oINbdc/dQCqfgm6Nr8ONYY9LV7pPy5qf4PtNeaHqeo3MHkyXuoSzsu3aVJI4rzrWPFmoeG/8AhKPDsOlSSxXk0yic7/kDrjP6/pWh6Z2V9B9n/Z9kX+9pav8A99Yb+tfGS/dH+e9fdWq6E+pfCuHRlf7K81nBaCRxnyi2xOnfGf0rz3/h3zrZ/wCZ9tj/ANw7H/s1YVIttWR8zm+BrYuUHSV7XPlaT7jfSuaf7z/jX2a3/BPjW8HHjq1Y4x82nH/4qsVv+Cc3iTeCPHFnwcj/AEI+v+9WPJLseVQynFU78y/E5f4vf8mcfDT/ALDUn/ouWvmcf1r7B+I37HnxZk8C6H4fsfE1j4k0nTrsyQ6a0ItvKyrAvvwSeuMe9eaN+xH8XGJB0Wwzn/n/ABx+O2t6CcaajI+3p3UIprZL8Dxzwv8A8fmof9s//Zq2b7/j3Jr3r4cfsC+OtR/tGfXtYs/Dkh8tY40X7T5uN2TnjHUfXNdVqX/BPnxALY+T42gnb+6LHH/s1ZzjJy0R8fjcsxNbFyqwWjt+SPmvwL4wk8GatHeRRLNhSjRuSAynqM9jX3j4N1qzj8L6R5l7bxyfZYztMgBGR0IzxXhR/wCCfPik5P8AwlVvnHez6f8Aj1fHttBH5CiY+dMCd7yHLM3cn61GHw8aVSdRKzlb8D6vC1sW8PHDYi3LD4fnv+SP1dg8SadIMNqFtlev71f8an/tzTGx/wATC2/7+p/jX5P/AGe3/wCeaUfZ7f8A55pXdY6T9W5tW02ZcDULbcOn71P8azLjWbEJIv2+2ZsEY81PT61+W/2e3/55pR9mtSpBWMZ9aLAep+Ntv/CXatgqwNy5BX61e8A+PLvwLrAuYkE1s+FmhY43DnH4jJr034N/sW6x8Rvhj4f8SJ4yjsk1CAyrbS2W9oxvYAE7vauz/wCHe+tf9D5b/wDgv/8Asq8fGYGnjqM8PiIc0JaNHxMMDmGGxX1rDaSTunc0vDnxE0DxRAjWt/Ek3Aa2mYLIp9MHr9RW/dXtvZQ+ZczRwRD+KRgo+uTXHf8ADvnWx08d2/8A4Lz/APFU5v8Agn5rzYz48tsD/qHn/wCKr8br+FtGVVyoYhxj2cU3991+R+nUeKszjS5a2FjKXdSsvus/zOd+Ifxw07S7eax0ORb6+ZSv2hOY48+h7n6elfPc08lxI8srb5XYs7HqSe9fUn/DvnXD18eW/wD4L/8A7Kj/AId761/0Plv/AOC//wCyr9IyLhzC5BQdLCxbb3k7Xf8AwPI+BziWb53VVTEJJLaKei/4PmfK7b/4JHjb+9GSD+dJ+/8A4bq4WT/norHP4mvqn/h3vrX/AEPlv/4L/wD7Kj/h3vrX/Q+W/wD4L/8A7KvpuSXY8KOU46Oy/E+Vfn7TyL67ZCA1Kc8ZXPq1fVP/AA731r/ofLf/AMF//wBlR/w731r/AKHy3/8ABf8A/ZUnTk1ZoqOVY+EozjutVqfNvhvxZqfhG8aWwkU7hgxsCQ1X/FXxG1fxdCttclIbcYJjiBAJHrzX0H/w731r/ofLf/wX/wD2VH/DvfWv+h8tv/Bf/wDZV48spi6nPY/S6fEOaQw/spUU5d+bT1t/wT5XUFRjK9c4Hal5r6n/AOHe+tf9D5b/APgv/wDsqP8Ah3vrX/Q+W/8A4L//ALKvXjScIqKWiPzfEZbmGKrSr1VeUnd6nytIu5eceuPX8a7LQ/i3ruh2KWqiG5WMYQ3C7mUdhmvd/wDh3vrX/Q+W/wD4L/8A7Kj/AId761/0Plv/AOC//wCyrzsTlscQ7tH2eS5lmmU0fq7p80Vt71mvLrofMOr6xeeItQkvb2XzZnP/AHz7DnpVavqf/h3vrX/Q92//AIL/AP7Kj/h3vrX/AEPlv/4L/wD7KunD4T6vGyR4mc/2lnNZVKkUktlf9erPljmmTTJbxPLI6xqgyWY4AHevqyL/AIJ76t5y+d48i8vv5dgA35kn+Veh/D79hnwT4V1CDUddubrxfdwsHjj1EqLdGHQ+UoCtj/aBrq9nLseJTyPEyl79kjzn9h74I3l5rg+Jmt2j2tnFA0OhwzDa8m/iS5x2XaAqnvuc9MZ+2V79qZbwx28SxRKscaKFVFXAUDoAKlrqjFRVkfb4bDwwtJUobIKKKKs6gooooAKKKKAGt/njNeXeN9F1j/hNJL+z0efUbaW1WLzIJEGCDzncRXqdFAHj1v8A8JDaqd3ha/Mec/fib9A+anN5qvB/4RnVT/2yX+pr1qigDyUXmq5/5FfVf+/Sf/FVUuP7YlfcnhnVB65jUf1r2WigDxTy9b/6FvUv++B/jTo21yF1ZfDep5B6eWOf1r2migDlvhrp13pfhG0gvYmguMu7RPjcm5ycGupoooAKx/F2qQ6P4dvrqc4RYigwMks3ygAfU1sVW1DT7bVbV7W8t4rq2kGHhmQMrfUGgD5x0/xxFHD9lawnRovlO+aFQe+QWcZ79Kt/8JlbLyLIEj0urf8A+OV7/FpNlDDHClnCkMS7URYwAo9AMdKd/Zdn/wA+kP8A3wKAPn9vGkL4LWQf0zd2/H/kSmSeOrezikmNhhY1LtsubcnAHoH5+lfQf9l2f/PpD/3wKT+y7PcCLOHI5HyCgDzf4MeKINRbUbRoJbO4kl+0LHKoBK9DnB4I6Ee1epL/AJ5qjDoenW+pSahFY28V7Iux7hYgJGHoW61eX/POaAHU1scZHPrTqaeo9aAPIPjF4sgsNc0qFYZriay8wzJCo48wLtAyRuOBk49a5L/hN4LhVdrAPkAjdd23Gee8nFe+tomnSakb9rC3a+2eWblolMhX03elTf2ZZ/8APrCccfcHFAHgA8bRqMiyUD/Zurb/AOOVG/jK2++bIE573Vv/APHK+g/7Ls/+fSH/AL4FH9l2f/PpD/3wKAPnLUvGsdxJFapYzOfNibcskUirtdWIJD8EheB3xx0r6K0XVrfXNNt9QtWLQXCB0LDBx7j9PwouNGsLq2lt5rKCSCQYeN4wVYehGKmsbODT7aO3too4LeMYSOJQqqPQAUAWKKKKACiiigAooooAawyRzg+tfmz/AMFBvh9oHhLx54d/sHSINN+22jz3AtVKrI/mMN2BwOnav0mavh//AIKIeDdX1DXvCut2em3N7YR2r2kj28DS+W+8sMhRnkH9KAPgz+zZOMxv7daP7Nb/AJ5v+tdd/YWrMM/2RqRH/XlL6em2j+wdV/6A+pf+AUv/AMTVDscj/Zrf883/AFr3z9iP4f6L42+OiaZ4i0qPVNO/sm5m+z3IYpvVotpxkcjJ/OvMv7A1Xaf+JRqIPQZspf8A4mvpT9gnwXrY+NE+uy6bdW+mWelT28lzdQvH+8kZNqjcBn7jfpQxH6C6PpNnoemwWFhbJaWduvlxQRDCIo7AelXaQYyaWpAKKKKACiiigAooooAKKKKACiiigAooooAKKKKACiiigAooooAKKKKACiiigAooooAKKKKACiiigAooooAKKKKACiiigAooooAKKKKACiiigAooooAKKKKACiiigAooooAKKKKACiiigAooooAKKKKACiiigArN17/jzNFFAHIx/dp1FFACN2rqfDn/AB5miigDWooooAKKKKACiiigAooooAKKKKACiiigAooooAKKKKACiiigAooooAKKKKACiiigD//Z;" vertex="1" parent="1">
                    <mxGeometry x="390" y="487" width="195" height="130.37" as="geometry"/>
                </mxCell>
                <mxCell id="25" value="" style="edgeStyle=none;html=1;endArrow=none;endFill=0;entryX=0.398;entryY=0.997;entryDx=0;entryDy=0;entryPerimeter=0;strokeColor=#000000;strokeWidth=10;exitX=0.5;exitY=0;exitDx=0;exitDy=0;" parent="1" edge="1">
                    <mxGeometry relative="1" as="geometry">
                        <mxPoint x="468.5" y="640" as="sourcePoint"/>
                        <mxPoint x="468.6100000000001" y="612.97889" as="targetPoint"/>
                    </mxGeometry>
                </mxCell>
                <mxCell id="28" style="edgeStyle=orthogonalEdgeStyle;html=1;exitX=0.5;exitY=0;exitDx=0;exitDy=0;entryX=0;entryY=0.25;entryDx=0;entryDy=0;strokeColor=#F77D02;strokeWidth=1;curved=1;endArrow=none;endFill=0;" edge="1" parent="1" source="27" target="10">
                    <mxGeometry relative="1" as="geometry">
                        <Array as="points">
                            <mxPoint x="435" y="477"/>
                            <mxPoint x="600" y="477"/>
                            <mxPoint x="600" y="495"/>
                        </Array>
                    </mxGeometry>
                </mxCell>
                <mxCell id="32" value="&lt;font color=&quot;#000000&quot;&gt;GPIO 18&lt;/font&gt;" style="edgeLabel;html=1;align=center;verticalAlign=middle;resizable=0;points=[];" vertex="1" connectable="0" parent="28">
                    <mxGeometry x="-0.454" y="1" relative="1" as="geometry">
                        <mxPoint x="18" as="offset"/>
                    </mxGeometry>
                </mxCell>
                <mxCell id="27" value="" style="ellipse;whiteSpace=wrap;html=1;aspect=fixed;strokeColor=#F77D02;fillColor=none;" vertex="1" parent="1">
                    <mxGeometry x="430" y="487" width="10" height="10" as="geometry"/>
                </mxCell>
                <mxCell id="29" value="" style="ellipse;whiteSpace=wrap;html=1;aspect=fixed;strokeColor=#994C00;fillColor=none;" vertex="1" parent="1">
                    <mxGeometry x="414" y="487" width="10" height="10" as="geometry"/>
                </mxCell>
                <mxCell id="30" style="edgeStyle=orthogonalEdgeStyle;html=1;exitX=0.5;exitY=0;exitDx=0;exitDy=0;entryX=0;entryY=0.25;entryDx=0;entryDy=0;strokeColor=#994C00;strokeWidth=1;curved=1;endArrow=none;endFill=0;" edge="1" parent="1" source="29" target="10">
                    <mxGeometry relative="1" as="geometry">
                        <mxPoint x="445" y="497" as="sourcePoint"/>
                        <mxPoint x="625" y="505" as="targetPoint"/>
                        <Array as="points">
                            <mxPoint x="419" y="460"/>
                            <mxPoint x="610" y="460"/>
                            <mxPoint x="610" y="495"/>
                        </Array>
                    </mxGeometry>
                </mxCell>
                <mxCell id="31" value="&lt;font color=&quot;#000000&quot;&gt;GND&lt;/font&gt;" style="edgeLabel;html=1;align=center;verticalAlign=middle;resizable=0;points=[];" vertex="1" connectable="0" parent="30">
                    <mxGeometry x="-0.4121" y="-1" relative="1" as="geometry">
                        <mxPoint as="offset"/>
                    </mxGeometry>
                </mxCell>
                <mxCell id="33" value="" style="ellipse;whiteSpace=wrap;html=1;aspect=fixed;strokeColor=#FF0000;fillColor=none;" vertex="1" parent="1">
                    <mxGeometry x="403" y="487" width="10" height="10" as="geometry"/>
                </mxCell>
                <mxCell id="34" style="edgeStyle=orthogonalEdgeStyle;html=1;exitX=0.5;exitY=0;exitDx=0;exitDy=0;entryX=0;entryY=0.25;entryDx=0;entryDy=0;strokeColor=#FF0000;strokeWidth=1;curved=1;endArrow=none;endFill=0;" edge="1" parent="1" source="33" target="10">
                    <mxGeometry relative="1" as="geometry">
                        <mxPoint x="429" y="497" as="sourcePoint"/>
                        <mxPoint x="625" y="505" as="targetPoint"/>
                        <Array as="points">
                            <mxPoint x="408" y="440"/>
                            <mxPoint x="615" y="440"/>
                        </Array>
                    </mxGeometry>
                </mxCell>
                <mxCell id="35" value="&lt;font color=&quot;#000000&quot;&gt;5 V&lt;/font&gt;" style="edgeLabel;html=1;align=center;verticalAlign=middle;resizable=0;points=[];" vertex="1" connectable="0" parent="34">
                    <mxGeometry x="-0.4121" y="-1" relative="1" as="geometry">
                        <mxPoint as="offset"/>
                    </mxGeometry>
                </mxCell>
                <mxCell id="36" value="" style="ellipse;whiteSpace=wrap;html=1;aspect=fixed;strokeColor=#F77D02;fillColor=none;" vertex="1" parent="1">
                    <mxGeometry x="497" y="494" width="10" height="10" as="geometry"/>
                </mxCell>
                <mxCell id="37" style="edgeStyle=orthogonalEdgeStyle;html=1;entryX=0.5;entryY=1;entryDx=0;entryDy=0;strokeColor=#F77D02;strokeWidth=1;curved=1;endArrow=none;endFill=0;" edge="1" parent="1" target="36">
                    <mxGeometry relative="1" as="geometry">
                        <mxPoint x="340" y="520" as="sourcePoint"/>
                        <mxPoint x="536" y="540.98" as="targetPoint"/>
                        <Array as="points">
                            <mxPoint x="340" y="530"/>
                            <mxPoint x="502" y="530"/>
                        </Array>
                    </mxGeometry>
                </mxCell>
                <mxCell id="38" value="&lt;font color=&quot;#000000&quot;&gt;GPIO 19&lt;/font&gt;" style="edgeLabel;html=1;align=center;verticalAlign=middle;resizable=0;points=[];" vertex="1" connectable="0" parent="37">
                    <mxGeometry x="-0.4121" y="-1" relative="1" as="geometry">
                        <mxPoint as="offset"/>
                    </mxGeometry>
                </mxCell>
                <mxCell id="39" value="" style="ellipse;whiteSpace=wrap;html=1;aspect=fixed;strokeColor=#994C00;fillColor=none;" vertex="1" parent="1">
                    <mxGeometry x="425" y="494" width="10" height="10" as="geometry"/>
                </mxCell>
                <mxCell id="40" style="edgeStyle=orthogonalEdgeStyle;html=1;entryX=0.5;entryY=1;entryDx=0;entryDy=0;strokeColor=#994C00;strokeWidth=1;curved=1;endArrow=none;endFill=0;" edge="1" parent="1" target="39">
                    <mxGeometry relative="1" as="geometry">
                        <mxPoint x="340" y="520" as="sourcePoint"/>
                        <mxPoint x="512.0000000000001" y="514" as="targetPoint"/>
                        <Array as="points">
                            <mxPoint x="430" y="520"/>
                        </Array>
                    </mxGeometry>
                </mxCell>
                <mxCell id="41" value="&lt;font color=&quot;#000000&quot;&gt;GND&lt;/font&gt;" style="edgeLabel;html=1;align=center;verticalAlign=middle;resizable=0;points=[];" vertex="1" connectable="0" parent="40">
                    <mxGeometry x="-0.4121" y="-1" relative="1" as="geometry">
                        <mxPoint x="42" y="-10" as="offset"/>
                    </mxGeometry>
                </mxCell>
                <mxCell id="42" value="&lt;font color=&quot;#000000&quot;&gt;Camera&lt;/font&gt;" style="rounded=1;whiteSpace=wrap;html=1;rotation=0;fillColor=#6d8764;fontColor=#ffffff;strokeColor=#3A5431;" vertex="1" parent="1">
                    <mxGeometry x="609" y="554.37" width="90" height="60" as="geometry"/>
                </mxCell>
                <mxCell id="43" value="" style="edgeStyle=none;html=1;endArrow=none;endFill=0;entryX=0;entryY=0.5;entryDx=0;entryDy=0;strokeColor=#BDBDBD;strokeWidth=30;" edge="1" parent="1" target="42">
                    <mxGeometry relative="1" as="geometry">
                        <mxPoint x="486.0022393608886" y="584.39" as="sourcePoint"/>
                        <mxPoint x="486.05" y="561.36889" as="targetPoint"/>
                    </mxGeometry>
                </mxCell>
                <mxCell id="47" style="edgeStyle=orthogonalEdgeStyle;curved=1;html=1;entryX=0.556;entryY=1;entryDx=0;entryDy=0;entryPerimeter=0;strokeColor=#BDBDBD;strokeWidth=1;endArrow=none;endFill=0;shape=link;" edge="1" parent="1" source="46" target="14">
                    <mxGeometry relative="1" as="geometry"/>
                </mxCell>
                <mxCell id="46" value="" style="verticalLabelPosition=bottom;verticalAlign=top;html=1;shadow=0;dashed=0;strokeWidth=1;shape=mxgraph.android.switch_on;fillColor=#E6E6E6;sketch=0;strokeColor=#F77D02;" vertex="1" parent="1">
                    <mxGeometry x="260" y="650" width="80" height="20" as="geometry"/>
                </mxCell>
            </root>
        </mxGraphModel>
    </diagram>
</mxfile>